<?xml version="1.0" standalone="no"?>
<!DOCTYPE svg PUBLIC "-//W3C//DTD SVG 1.1//EN" "http://www.w3.org/Graphics/SVG/1.1/DTD/svg11.dtd" >
<svg xmlns="http://www.w3.org/2000/svg" xmlns:xlink="http://www.w3.org/1999/xlink" version="1.1">
<metadata>
Created by FontForge 20170731 at Sat Jul 23 03:10:06 2016
 By Aleksey,,,
(c)2015 Neue Einstellung is a trademark of Alfredo Marco Pradil. All rights reserved.
</metadata>
<defs>
<font id="NeueEinstellung-Medium" horiz-adv-x="0" >
  <font-face 
    font-family="Neue Einstellung Medium"
    font-weight="500"
    font-stretch="normal"
    units-per-em="1000"
    panose-1="0 0 6 0 0 0 0 0 0 0"
    ascent="750"
    descent="-250"
    x-height="500"
    cap-height="750"
    bbox="-760 -328 1141 1026"
    underline-thickness="50"
    underline-position="-250"
    unicode-range="U+0020-FB02"
  />
<missing-glyph horiz-adv-x="613" 
d="M91 0v750h431v-750h-431zM176 85h261v580h-261v-580z" />
    <glyph glyph-name="fi" unicode="fi" horiz-adv-x="637" 
d="M222 579v-79h128v-96h-128v-404h-111v404h-84v96h84v93q0 77 44 122t118 45q53 0 75 -15v-106q-24 19 -57 19q-31 0 -50 -21.5t-19 -57.5zM497 625q-28 0 -48 19.5t-20 47.5t20 48t48 20t48 -20t20 -48t-20 -47.5t-48 -19.5zM441 0v500h112v-500h-112z" />
    <glyph glyph-name="fl" unicode="fl" horiz-adv-x="637" 
d="M222 579v-79h128v-96h-128v-404h-111v404h-84v96h84v93q0 77 44 122t118 45q53 0 75 -15v-106q-24 19 -57 19q-31 0 -50 -21.5t-19 -57.5zM442 750h111v-750h-111v750z" />
    <glyph glyph-name=".notdef" horiz-adv-x="613" 
d="M91 0v750h431v-750h-431zM176 85h261v580h-261v-580z" />
    <glyph glyph-name=".null" 
 />
    <glyph glyph-name="nonmarkingreturn" horiz-adv-x="333" 
 />
    <glyph glyph-name="space" unicode=" " horiz-adv-x="274" 
 />
    <glyph glyph-name="exclam" unicode="!" horiz-adv-x="318" 
d="M116 233l-13 517h112l-13 -517h-86zM159 -10q-28 0 -48 20t-20 48t20 48t48 20t48 -20t20 -48t-20 -48t-48 -20z" />
    <glyph glyph-name="quotedbl" unicode="&#x22;" horiz-adv-x="474" 
d="M104 464l-13 286h105l-13 -286h-79zM290 464l-13 286h106l-13 -286h-80z" />
    <glyph glyph-name="numbersign" unicode="#" horiz-adv-x="811" 
d="M184 0l24 170h-141l11 81h141l32 214h-142l13 80h139l25 172h79l-23 -172h179l24 172h81l-25 -172h143l-13 -80h-140l-31 -214h140l-10 -81h-140l-27 -170h-79l24 170h-181l-23 -170h-80zM300 251h179l31 214h-180z" />
    <glyph glyph-name="dollar" unicode="$" horiz-adv-x="674" 
d="M593 216q0 -89 -60.5 -144.5t-147.5 -70.5v-85h-104v86q-68 12 -124 51.5t-84 92.5l86 52q23 -46 71 -75t108 -29q64 0 107 31.5t43 83.5q0 34 -21.5 59t-55.5 40t-75 28.5t-82 29.5t-75 38t-55.5 59t-21.5 87q0 83 51.5 134.5t127.5 64.5v86h104v-88q94 -18 157 -86
l-69 -59q-56 61 -137 61q-54 0 -92 -28.5t-38 -76.5q0 -33 21.5 -58t55.5 -40t75.5 -29t82.5 -30.5t75 -38.5t55.5 -59t21.5 -87z" />
    <glyph glyph-name="percent" unicode="%" horiz-adv-x="788" 
d="M202 425q-61 0 -104 49t-43 118q0 70 43 119t104 49t103.5 -49t42.5 -119q0 -69 -42.5 -118t-103.5 -49zM81 0l510 750h116l-510 -750h-116zM202 510q24 0 43 24t19 58q0 35 -18.5 59t-43.5 24t-43 -24t-18 -59q0 -34 18 -58t43 -24zM587 -10q-61 0 -104 49.5t-43 118.5
t43 118t104 49t103.5 -49t42.5 -118t-42.5 -118.5t-103.5 -49.5zM587 75q24 0 42.5 24t18.5 59q0 34 -18.5 58t-42.5 24q-25 0 -43.5 -24t-18.5 -58q0 -35 18.5 -59t43.5 -24z" />
    <glyph glyph-name="ampersand" unicode="&#x26;" horiz-adv-x="667" 
d="M650 60l-68 -68l-99 99l-36 -36q-66 -66 -161 -66q-96 0 -162 66q-67 69 -67 162q0 95 67 160l36 36l-20 20q-56 56 -56 136q0 79 56 134t135 55t135 -55t56 -134q0 -59 -33 -105.5t-87 -67.5q-20 -7 -26 -8l163 -162l92 91l67 -67l-91 -91zM276 664q-40 0 -68.5 -27.5
t-29.5 -67.5q1 -39 29.5 -67t68.5 -28q38 0 66.5 28t28.5 67t-28.5 67t-66.5 28zM380 123l35 35l-187 187l-36 -36q-39 -39 -39 -94q0 -53 39 -92q42 -40 94 -40q54 0 94 40z" />
    <glyph glyph-name="quotesingle" unicode="'" horiz-adv-x="287" 
d="M104 464l-13 286h105l-13 -286h-79z" />
    <glyph glyph-name="parenleft" unicode="(" horiz-adv-x="390" 
d="M354 -255q-127 5 -205 139t-78 404q0 271 78 406.5t205 140.5v-80q-83 -7 -134 -122.5t-51 -344.5q0 -227 51 -341.5t134 -121.5v-80z" />
    <glyph glyph-name="parenright" unicode=")" horiz-adv-x="390" 
d="M36 -255v80q83 7 133.5 121.5t50.5 341.5q0 229 -50.5 344.5t-133.5 122.5v80q127 -5 205 -141t78 -406q0 -269 -78 -403.5t-205 -139.5z" />
    <glyph glyph-name="asterisk" unicode="*" horiz-adv-x="358" 
d="M140 498l-50 30l55 76l-94 -10v59l94 -10l-55 76l50 30l39 -86l39 86l51 -30l-56 -76l94 10v-59l-94 10l56 -76l-51 -30l-39 86z" />
    <glyph glyph-name="plus" unicode="+" horiz-adv-x="802" 
d="M359 0v267h-268v86h268v267h85v-267h267v-86h-267v-267h-85z" />
    <glyph glyph-name="comma" unicode="," horiz-adv-x="276" 
d="M83 -199l-73 31l117 276l100 -42z" />
    <glyph glyph-name="hyphen" unicode="-" horiz-adv-x="459" 
d="M55 218v84h350v-84h-350z" />
    <glyph glyph-name="period" unicode="." horiz-adv-x="226" 
d="M113 -10q-28 0 -48 20t-20 48t20 48t48 20t48 -20t20 -48t-20 -48t-48 -20z" />
    <glyph glyph-name="slash" unicode="/" horiz-adv-x="615" 
d="M-17 -182l530 1015h105l-529 -1015h-106z" />
    <glyph glyph-name="zero" unicode="0" horiz-adv-x="642" 
d="M321 -10q-121 0 -197.5 107.5t-76.5 277.5t76.5 277.5t197.5 107.5t197.5 -107.5t76.5 -277.5t-76.5 -277.5t-197.5 -107.5zM322 100q69 0 114.5 77t45.5 198t-45.5 198t-114.5 77q-70 0 -115.5 -77t-45.5 -198t45.5 -198t115.5 -77z" />
    <glyph glyph-name="one" unicode="1" horiz-adv-x="344" 
d="M146 0v643h-110v107h224v-750h-114z" />
    <glyph glyph-name="two" unicode="2" horiz-adv-x="596" 
d="M214 107h333v-107h-495v87q249 260 304 329t55 122q0 57 -33 86t-82 30q-52 1 -85 -32.5t-30 -89.5l-116 1q-5 100 65 164.5t172 63.5q95 -1 159.5 -59t65.5 -150q2 -84 -48 -153t-247 -273q-12 -13 -18 -19z" />
    <glyph glyph-name="three" unicode="3" horiz-adv-x="602" 
d="M415 418q53 -29 84 -79.5t31 -113.5q0 -98 -70 -166.5t-172 -68.5q-100 0 -169.5 63.5t-69.5 157.5l116 1q0 -48 36 -80.5t87 -32.5q54 0 91 38t37 93q0 53 -36 86t-91 33h-68l-1 102h62q43 0 73 30t30 73q0 42 -29.5 70t-72.5 28q-40 0 -67.5 -25.5t-27.5 -63.5l-113 1
q0 85 60 140.5t148 55.5q87 0 146.5 -56t59.5 -140q0 -93 -74 -146z" />
    <glyph glyph-name="four" unicode="4" horiz-adv-x="616" 
d="M555 265v-107h-72v-158h-114v158h-359v72l330 520h143v-485h72zM152 265h217v361z" />
    <glyph glyph-name="five" unicode="5" horiz-adv-x="620" 
d="M344 506q99 0 165 -69t66 -179q0 -118 -76 -192.5t-190 -74.5q-66 0 -123 25.5t-95.5 76.5t-42.5 119l120 4q9 -57 50 -86t95 -29q62 0 103 43t41 112q0 67 -41.5 109.5t-101.5 42.5q-37 0 -73.5 -20t-58.5 -53l-117 3l71 412h409v-104h-323l-32 -194q62 54 154 54z" />
    <glyph glyph-name="six" unicode="6" horiz-adv-x="630" 
d="M588 256q3 -108 -74 -184.5t-188 -80.5q-112 -3 -193 70.5t-84 181.5q-1 91 63 174l254 333h135l-201 -248q17 4 44 4q94 -6 168 -76t76 -174zM325 97q69 3 111.5 48t39.5 110q-3 69 -48.5 112.5t-114.5 40.5t-111 -49.5t-39 -115.5q2 -66 47.5 -108t114.5 -38z" />
    <glyph glyph-name="seven" unicode="7" horiz-adv-x="554" 
d="M44 750h507v-79l-369 -671h-131l364 646h-371v104z" />
    <glyph glyph-name="eight" unicode="8" horiz-adv-x="595" 
d="M431 416q54 -30 85.5 -81t31.5 -114q0 -98 -71.5 -164.5t-179.5 -66.5q-106 0 -178 66.5t-72 164.5q0 63 31.5 114t85.5 81q-73 50 -73 152q0 81 59 136.5t148 55.5q88 0 147 -55.5t59 -136.5q0 -102 -73 -152zM298 661q-46 0 -76.5 -30.5t-30.5 -75.5t30.5 -75.5
t76.5 -30.5q44 0 75 30.5t31 75.5t-31 75.5t-75 30.5zM297 90q57 0 96.5 41t39.5 99t-39 96.5t-97 38.5q-57 0 -96 -38.5t-39 -96.5t39 -99t96 -41z" />
    <glyph glyph-name="nine" unicode="9" horiz-adv-x="637" 
d="M588 507q3 -88 -62 -174l-254 -333h-135l203 249q-23 -5 -46 -5q-94 6 -168 76.5t-77 173.5q-2 108 75 184.5t188 80.5q112 3 193 -70.5t83 -181.5zM325 341q69 3 111 50t40 116q-3 66 -48.5 108t-114.5 39t-112 -48t-40 -111q3 -69 49 -112.5t115 -41.5z" />
    <glyph glyph-name="colon" unicode=":" horiz-adv-x="324" 
d="M162 374q-28 0 -48 20t-20 48t20 48t48 20t48 -20t20 -48t-20 -48t-48 -20zM162 -10q-28 0 -48 20t-20 48t20 48t48 20t48 -20t20 -48t-20 -48t-48 -20z" />
    <glyph glyph-name="semicolon" unicode=";" horiz-adv-x="344" 
d="M175 374q-29 0 -48.5 20t-19.5 48t20 48t48 20t48 -20t20 -48t-20 -48t-48 -20zM120 -199l-73 32l117 275l100 -42z" />
    <glyph glyph-name="less" unicode="&#x3c;" horiz-adv-x="734" 
d="M643 682v-93l-465 -234l465 -235v-94l-552 279v100z" />
    <glyph glyph-name="equal" unicode="=" horiz-adv-x="722" 
d="M61 326v72h600v-72h-600zM61 132v72h600v-72h-600z" />
    <glyph glyph-name="greater" unicode="&#x3e;" horiz-adv-x="734" 
d="M91 682l552 -277v-100l-552 -279v94l465 235l-465 234v93z" />
    <glyph glyph-name="question" unicode="?" horiz-adv-x="566" 
d="M225 216v55q0 46 13.5 77t33.5 44.5t43.5 27t43.5 24t33.5 35t13.5 61.5q0 51 -37.5 85t-93.5 34q-58 0 -95 -38t-35 -94h-99q-4 97 62 163t167 66q98 0 163.5 -62t65.5 -154q0 -55 -18.5 -92.5t-45 -55.5t-52.5 -31.5t-44.5 -32.5t-18.5 -48v-64h-100zM279 -10
q-29 0 -49 20t-20 48t20.5 48t48.5 20t48 -20t20 -48t-20 -48t-48 -20z" />
    <glyph glyph-name="at" unicode="@" horiz-adv-x="616" 
d="M525 149h-67v29q-38 -40 -94 -40q-52 0 -89 36.5t-37 89.5q0 52 37 88.5t88 36.5q59 0 95 -43v20q0 48 -39 81.5t-95 33.5q-82 0 -139 -59.5t-57 -145.5q0 -88 63.5 -148.5t154.5 -60.5h179v-67h-179q-120 0 -202.5 80t-82.5 196q0 114 76.5 193.5t186.5 79.5
q85 0 143 -53t58 -130v-217zM389 195q51 0 69 43v52q-18 42 -69 42q-31 0 -52 -19.5t-21 -48.5q0 -30 21 -49.5t52 -19.5z" />
    <glyph glyph-name="A" unicode="A" horiz-adv-x="725" 
d="M603 0l-62 161h-357l-62 -161h-125l301 750h129l301 -750h-125zM224 264h278l-139 362z" />
    <glyph glyph-name="B" unicode="B" horiz-adv-x="664" 
d="M484 382q61 -20 95.5 -66t34.5 -115q0 -90 -60.5 -145.5t-151.5 -55.5h-318v750h281q91 0 153 -56.5t62 -146.5q0 -115 -96 -165zM465 536q0 45 -33 75.5t-80 30.5h-153v-216h153q47 0 80 32t33 78zM386 108q48 0 80.5 30.5t32.5 76.5t-33 77.5t-80 31.5h-187v-216h187z
" />
    <glyph glyph-name="C" unicode="C" horiz-adv-x="769" 
d="M452 -10q-160 0 -272.5 112t-112.5 273t112.5 273t272.5 112q79 0 155 -34t128 -91l-86 -75q-78 86 -197 86q-114 0 -192.5 -78.5t-78.5 -192.5t78.5 -192.5t192.5 -78.5q117 0 197 86l86 -75q-52 -57 -128 -91t-155 -34z" />
    <glyph glyph-name="D" unicode="D" horiz-adv-x="741" 
d="M84 0v750h222q164 0 271 -108.5t107 -266.5t-107 -266.5t-271 -108.5h-222zM199 108h103q116 0 190 76t74 191t-74 191t-190 76h-103v-534z" />
    <glyph glyph-name="E" unicode="E" horiz-adv-x="568" 
d="M523 644h-318v-216h276v-106h-276v-216h318v-106h-433v750h433v-106z" />
    <glyph glyph-name="F" unicode="F" horiz-adv-x="543" 
d="M523 644h-318v-216h276v-106h-276v-322h-115v750h433v-106z" />
    <glyph glyph-name="G" unicode="G" horiz-adv-x="815" 
d="M454 423h290v-423h-100l-6 58q-80 -68 -200 -68q-161 0 -271 112t-110 273t112.5 273t272.5 112q79 0 155 -34t128 -91l-86 -75q-78 86 -197 86q-114 0 -192.5 -78.5t-78.5 -192.5q0 -115 76.5 -193t190.5 -78q119 0 192 78v133h-176v108z" />
    <glyph glyph-name="H" unicode="H" horiz-adv-x="767" 
d="M567 750h116v-750h-116v321h-368v-321h-115v750h115v-320h368v320z" />
    <glyph glyph-name="I" unicode="I" horiz-adv-x="294" 
d="M90 0v750h115v-750h-115z" />
    <glyph glyph-name="J" unicode="J" horiz-adv-x="373" 
d="M112 -10q-50 0 -78 10v115q33 -10 68 -10q31 0 53.5 20.5t22.5 51.5v573h115v-582q0 -78 -51.5 -128t-129.5 -50z" />
    <glyph glyph-name="K" unicode="K" horiz-adv-x="651" 
d="M670 0h-158l-313 374v-374h-115v750h115v-307l294 307h154l-335 -340z" />
    <glyph glyph-name="L" unicode="L" horiz-adv-x="473" 
d="M199 108h267v-108h-382v750h115v-642z" />
    <glyph glyph-name="M" unicode="M" horiz-adv-x="949" 
d="M742 750h123v-750h-115v559l-277 -477l-274 476v-558h-115v750h124l266 -457z" />
    <glyph glyph-name="N" unicode="N" horiz-adv-x="821" 
d="M622 750h115v-750h-115l-423 571v-571h-115v750h114l424 -569v569z" />
    <glyph glyph-name="O" unicode="O" horiz-adv-x="884" 
d="M442 -10q-160 0 -272.5 112.5t-112.5 272.5t112.5 272.5t272.5 112.5t272.5 -112.5t112.5 -272.5t-112.5 -272.5t-272.5 -112.5zM442 104q114 0 192.5 78.5t78.5 192.5t-78.5 192.5t-192.5 78.5q-113 0 -192 -78.5t-79 -192.5t79 -192.5t192 -78.5z" />
    <glyph glyph-name="P" unicode="P" horiz-adv-x="602" 
d="M373 750q90 0 152.5 -63t62.5 -153q0 -91 -62 -152t-153 -61h-174v-321h-115v750h289zM358 423q51 0 84.5 30t33.5 80q0 49 -34 80t-84 31h-159v-221h159z" />
    <glyph glyph-name="Q" unicode="Q" horiz-adv-x="884" 
d="M776 -46l55 -88q-65 -44 -138.5 -55.5t-134 7.5t-105 65t-55.5 110q-145 16 -243 125t-98 257q0 160 112.5 272.5t272.5 112.5t272.5 -112.5t112.5 -272.5q0 -143 -92 -250t-230 -130q24 -69 106.5 -83t164.5 42zM171 375q0 -114 79 -192.5t192 -78.5q114 0 192.5 78.5
t78.5 192.5t-78.5 192.5t-192.5 78.5q-113 0 -192 -78.5t-79 -192.5z" />
    <glyph glyph-name="R" unicode="R" horiz-adv-x="655" 
d="M424 329l216 -329h-134l-201 319h-106v-319h-115v750h289q90 0 152.5 -63.5t62.5 -154.5q0 -76 -46 -132.5t-118 -70.5zM199 421h162q49 0 82 31t33 79q0 49 -33 80t-82 31h-162v-221z" />
    <glyph glyph-name="S" unicode="S" horiz-adv-x="562" 
d="M289 -10q-88 0 -157.5 43.5t-102.5 114.5l98 60q21 -50 63.5 -79t99.5 -29q56 0 91 27.5t35 75.5q0 33 -19.5 58t-51 41t-69.5 30.5t-76 32t-69.5 40t-51 60.5t-19.5 88q0 95 64 151t157 56q64 0 119.5 -27t91.5 -72l-81 -74q-51 66 -130 66q-46 0 -76.5 -23.5
t-30.5 -67.5q0 -32 19.5 -55.5t51 -39t69.5 -29.5t76 -32.5t69.5 -42.5t51 -64.5t19.5 -94.5q0 -98 -69 -156t-172 -58z" />
    <glyph glyph-name="T" unicode="T" horiz-adv-x="534" 
d="M524 750v-108h-199v-642h-115v642h-200v108h514z" />
    <glyph glyph-name="U" unicode="U" horiz-adv-x="749" 
d="M374 -10q-127 0 -210.5 72t-83.5 182v506h115v-486q0 -71 51 -118.5t128 -47.5t128 47.5t51 118.5v486h116v-506q0 -109 -84 -181.5t-211 -72.5z" />
    <glyph glyph-name="V" unicode="V" horiz-adv-x="719" 
d="M597 750h128l-301 -750h-129l-301 750h129l237 -624z" />
    <glyph glyph-name="W" unicode="W" horiz-adv-x="1015" 
d="M907 750h121l-222 -750h-128l-171 613l-169 -613h-128l-223 750h122l168 -572l162 572h136l164 -572z" />
    <glyph glyph-name="X" unicode="X" horiz-adv-x="627" 
d="M633 0h-136l-184 288l-183 -288h-136l257 383l-247 367h135l174 -272l175 272h135l-248 -367z" />
    <glyph glyph-name="Y" unicode="Y" horiz-adv-x="627" 
d="M633 750l-261 -396v-354h-115v353l-263 397h136l184 -287l185 287h134z" />
    <glyph glyph-name="Z" unicode="Z" horiz-adv-x="668" 
d="M213 108h404v-108h-570v61l396 581h-385v108h551v-61z" />
    <glyph glyph-name="bracketleft" unicode="[" horiz-adv-x="352" 
d="M84 -250v1093h226v-81h-129v-931h129v-81h-226z" />
    <glyph glyph-name="backslash" unicode="\" horiz-adv-x="615" 
d="M513 -182l-530 1015h106l529 -1015h-105z" />
    <glyph glyph-name="bracketright" unicode="]" horiz-adv-x="352" 
d="M42 -250v81h129v931h-129v81h226v-1093h-226z" />
    <glyph glyph-name="asciicircum" unicode="^" horiz-adv-x="719" 
d="M687 198h-94l-234 465l-234 -465h-94l278 552h100z" />
    <glyph glyph-name="underscore" unicode="_" horiz-adv-x="682" 
d="M91 -76v76h500v-76h-500z" />
    <glyph glyph-name="grave" unicode="`" horiz-adv-x="72" 
d="M188 555l-166 141l58 64l148 -161z" />
    <glyph glyph-name="a" unicode="a" horiz-adv-x="664" 
d="M468 500h112v-500h-112v63q-65 -73 -171 -73q-102 0 -175 76t-73 184t73 184t175 76q106 0 171 -73v63zM316 95q65 0 110 45t45 110t-45 110t-110 45t-110.5 -45t-45.5 -110t45.5 -110t110.5 -45z" />
    <glyph glyph-name="b" unicode="b" horiz-adv-x="660" 
d="M363 510q102 0 175 -76t73 -184t-73 -184t-175 -76t-168 68v-58h-111v800h111v-358q66 68 168 68zM344 95q65 0 110.5 45t45.5 110t-45.5 110t-110.5 45t-110 -45t-45 -110t45 -110t110 -45z" />
    <glyph glyph-name="c" unicode="c" horiz-adv-x="587" 
d="M316 -10q-112 0 -189.5 75t-77.5 185t77.5 185t189.5 75q82 0 146.5 -41.5t95.5 -113.5l-100 -43q-17 43 -55 68t-87 25q-68 0 -112 -44t-44 -111t44 -111t112 -44q49 0 87 25t55 68l100 -42q-31 -73 -95.5 -114.5t-146.5 -41.5z" />
    <glyph glyph-name="d" unicode="d" horiz-adv-x="660" 
d="M465 750h111v-750h-111v59q-63 -69 -168 -69q-102 0 -175 76t-73 184t73 184t175 76q105 0 168 -69v309zM316 95q65 0 110 45t45 110t-45 110t-110 45t-110.5 -45t-45.5 -110t45.5 -110t110.5 -45z" />
    <glyph glyph-name="e" unicode="e" horiz-adv-x="619" 
d="M570 254l-1 -24h-408q6 -62 49.5 -101.5t103.5 -39.5q89 0 135 76l95 -38q-31 -63 -92 -100t-136 -37q-119 0 -193 74.5t-74 185.5q0 110 75 185t189 75q109 0 182.5 -72t74.5 -184zM312 413q-49 0 -86 -26.5t-54 -71.5h276q-16 46 -51.5 72t-84.5 26z" />
    <glyph glyph-name="f" unicode="f" horiz-adv-x="358" 
d="M350 500v-96h-128v-404h-111v404h-84v96h84v93q0 77 44 122t118 45q53 0 75 -15v-106q-24 19 -57 19q-31 0 -50 -21.5t-19 -57.5v-79h128z" />
    <glyph glyph-name="g" unicode="g" horiz-adv-x="667" 
d="M471 500h112v-500q0 -108 -78.5 -182.5t-191.5 -74.5q-72 0 -136.5 34.5t-104.5 94.5l77 68q26 -44 69 -70.5t93 -26.5q66 0 113 44.5t47 112.5v54q-67 -64 -167 -64q-107 0 -181 75.5t-74 184.5t74 184.5t181 75.5q99 0 167 -66v56zM316 95q64 0 109.5 45.5t45.5 109.5
q0 65 -45 110t-110 45t-110.5 -45t-45.5 -110t45.5 -110t110.5 -45z" />
    <glyph glyph-name="h" unicode="h" horiz-adv-x="578" 
d="M322 510q77 0 129.5 -53.5t52.5 -131.5v-325h-111v315q0 40 -28 67t-69 27q-43 0 -72 -28.5t-29 -69.5v-311h-111v750h111v-292q50 52 127 52z" />
    <glyph glyph-name="i" unicode="i" horiz-adv-x="279" 
d="M139 625q-28 0 -48 19.5t-20 47.5t20 48t48 20t48 -20t20 -48t-20 -47.5t-48 -19.5zM83 0v500h112v-500h-112z" />
    <glyph glyph-name="j" unicode="j" horiz-adv-x="279" 
d="M139 625q-28 0 -48 19.5t-20 47.5t20 48t48 20t48 -20t20 -48t-20 -47.5t-48 -19.5zM84 -250v750h111v-750h-111z" />
    <glyph glyph-name="k" unicode="k" horiz-adv-x="544" 
d="M548 0h-149l-204 244v-244h-111v750h111v-440l192 190h140l-226 -224z" />
    <glyph glyph-name="l" unicode="l" horiz-adv-x="279" 
d="M84 0v750h111v-750h-111z" />
    <glyph glyph-name="m" unicode="m" horiz-adv-x="862" 
d="M602 510q79 0 132.5 -56t53.5 -137v-317h-111v311q0 40 -26.5 67t-66.5 27t-66 -28t-26 -70v-307h-111v311q0 40 -27 67t-66 27q-41 0 -67 -28t-26 -70v-307h-111v500h111v-48q48 58 119 58q40 0 77.5 -20.5t62.5 -55.5q56 76 148 76z" />
    <glyph glyph-name="n" unicode="n" horiz-adv-x="578" 
d="M324 510q75 0 127.5 -54t52.5 -131v-325h-111v315q0 40 -28 67t-69 27q-43 0 -72 -28.5t-29 -69.5v-311h-111v500h111v-42q54 52 129 52z" />
    <glyph glyph-name="o" unicode="o" horiz-adv-x="632" 
d="M316 -10q-112 0 -189.5 75.5t-77.5 184.5t77.5 184.5t189.5 75.5q111 0 189 -75.5t78 -184.5t-78 -184.5t-189 -75.5zM316 95q65 0 110 45t45 110t-45 110t-110 45t-110.5 -45t-45.5 -110t45.5 -110t110.5 -45z" />
    <glyph glyph-name="p" unicode="p" horiz-adv-x="660" 
d="M363 510q102 0 175 -76t73 -184t-73 -184t-175 -76t-168 68v-308h-111v750h111v-58q66 68 168 68zM344 95q65 0 110.5 45t45.5 110t-45.5 110t-110.5 45t-110 -45t-45 -110t45 -110t110 -45z" />
    <glyph glyph-name="q" unicode="q" horiz-adv-x="660" 
d="M465 500h111v-750h-111v308q-65 -68 -168 -68q-102 0 -175 76t-73 184t73 184t175 76q103 0 168 -68v58zM316 95q65 0 110 45t45 110t-45 110t-110 45t-110.5 -45t-45.5 -110t45.5 -110t110.5 -45z" />
    <glyph glyph-name="r" unicode="r" horiz-adv-x="380" 
d="M322 509q22 0 45 -9v-106q-20 10 -46 10q-55 0 -90.5 -41t-35.5 -106v-257h-111v500h111v-77q44 86 127 86z" />
    <glyph glyph-name="s" unicode="s" horiz-adv-x="438" 
d="M229 -10q-60 0 -114 25.5t-80 66.5l79 57q38 -53 102 -56q35 -1 55.5 14.5t20.5 41.5q0 16 -13 29t-25 18.5t-48 18.5l-15 6q-67 24 -101 58.5t-34 90.5q0 68 49 109t125 41q46 0 89.5 -20t70.5 -55l-75 -60q-25 41 -82 44q-30 2 -48 -11.5t-18 -39.5q0 -34 81 -65
q3 -2 4.5 -2.5l4.5 -1.5t5 -2q30 -11 50.5 -22t44 -29t35.5 -43.5t12 -57.5q0 -69 -48 -112t-127 -43z" />
    <glyph glyph-name="t" unicode="t" horiz-adv-x="358" 
d="M336 500v-94h-101v-406h-112v406h-101v94h101v180h112v-180h101z" />
    <glyph glyph-name="u" unicode="u" horiz-adv-x="551" 
d="M276 -10q-96 0 -151.5 52.5t-55.5 142.5v315h112v-302q0 -47 26.5 -75t68.5 -28t68 28t26 75v302h112v-315q0 -90 -55.5 -142.5t-150.5 -52.5z" />
    <glyph glyph-name="v" unicode="v" horiz-adv-x="515" 
d="M392 500h119l-201 -500h-106l-200 500h119l135 -377z" />
    <glyph glyph-name="w" unicode="w" horiz-adv-x="824" 
d="M696 500h124l-171 -500h-120l-116 348l-117 -348h-120l-172 500h126l111 -376l124 376h95l124 -377z" />
    <glyph glyph-name="x" unicode="x" horiz-adv-x="561" 
d="M4 0l209 250l-209 250h134l142 -174l143 174h134l-209 -250l209 -250h-134l-142 173l-142 -173h-135z" />
    <glyph glyph-name="y" unicode="y" horiz-adv-x="525" 
d="M398 500h123l-211 -528l-90 -222h-116l104 256l-204 494h122l138 -363z" />
    <glyph glyph-name="z" unicode="z" horiz-adv-x="494" 
d="M464 500l-252 -399h248v-101h-434l251 399h-235v101h422z" />
    <glyph glyph-name="braceleft" unicode="{" horiz-adv-x="327" 
d="M239 -328q-48 0 -80.5 41.5t-32.5 101.5v240q0 76 -13.5 106.5t-61.5 52.5v70q48 23 61.5 53.5t13.5 105.5v237q0 61 32.5 103t80.5 42h55v-81q-50 0 -66 -13t-16 -60v-243q0 -64 -13 -106.5t-50 -72.5q37 -30 50 -72.5t13 -106.5v-248q0 -38 16.5 -52.5t65.5 -14.5v-83
h-55z" />
    <glyph glyph-name="bar" unicode="|" horiz-adv-x="302" 
d="M115 -150v900h71v-900h-71z" />
    <glyph glyph-name="braceright" unicode="}" horiz-adv-x="327" 
d="M33 -255v83q49 0 65.5 14.5t16.5 52.5v212q0 63 13 105.5t50 73.5q-37 30 -50 72.5t-13 106.5v206q0 47 -16 60t-66 13v83h56q48 0 80 -41.5t32 -103.5v-202q0 -75 14 -106t61 -54v-69q-47 -23 -61 -53.5t-14 -105.5v-203q0 -61 -32 -102.5t-80 -41.5h-56z" />
    <glyph glyph-name="asciitilde" unicode="~" horiz-adv-x="582" 
d="M396 165q-31 0 -60.5 14t-41 24.5t-31.5 32.5l-5 5q-35 37 -64 37q-35 0 -55 -30t-19 -73h-78q-5 80 38 130.5t116 50.5q72 0 126 -73q34 -42 67 -42t54.5 28.5t18.5 73.5h77q7 -76 -34.5 -127t-108.5 -51z" />
    <glyph glyph-name="exclamdown" unicode="&#xa1;" horiz-adv-x="318" 
d="M159 364q-28 0 -48 20t-20 48t20 48t48 20t48 -20t20 -48t-20 -48t-48 -20zM103 -250l13 518h86l13 -518h-112z" />
    <glyph glyph-name="cent" unicode="&#xa2;" horiz-adv-x="525" 
d="M330 512q-68 0 -115 -47t-47 -115t47 -115t115 -47q76 0 124 42v-109q-51 -28 -112 -31v-91h-68v96q-95 19 -156 90t-61 165t61 165t156 90v96h68v-91q59 -3 112 -31v-109q-48 42 -124 42z" />
    <glyph glyph-name="sterling" unicode="&#xa3;" horiz-adv-x="627" 
d="M202 79h380v-79h-465v329h-80v74h80v119q0 104 65 171t167 67q72 0 134.5 -45.5t84.5 -114.5l-82 -32q-10 46 -49.5 76t-87.5 30q-67 0 -107 -41.5t-40 -110.5v-119h186v-74h-186v-250z" />
    <glyph glyph-name="currency" unicode="&#xa4;" horiz-adv-x="629" 
d="M133 121l-59 63l52 51q-40 57 -40 128t40 128l-51 50l59 63l53 -53q57 41 128 41t128 -40l52 51l60 -60l-51 -51q40 -58 40 -129t-40 -129l51 -50l-59 -63l-53 53q-57 -40 -128.5 -40t-128.5 40zM211 261q44 -43 103.5 -43t102.5 43q42 42 42 102t-42 102
q-43 42 -102.5 42t-102.5 -43q-41 -42 -41.5 -102t40.5 -101z" />
    <glyph glyph-name="yen" unicode="&#xa5;" horiz-adv-x="693" 
d="M651 750l-255 -385h191v-70h-192v-91h192v-67h-192v-137h-98v137h-190v67h190v91h-190v70h189l-255 385h105l200 -310l200 310h105z" />
    <glyph glyph-name="brokenbar" unicode="&#xa6;" horiz-adv-x="302" 
d="M115 390v360h71v-360h-71zM115 -150v360h71v-360h-71z" />
    <glyph glyph-name="section" unicode="&#xa7;" horiz-adv-x="582" 
d="M536 355q0 -48 -36 -89q35 -40 35 -94q0 -72 -71 -121t-168 -49q-80 0 -148 34.5t-98 87.5l92 57q18 -33 60 -54t99 -21q53 0 88 18t35 50q0 28 -35.5 45t-86.5 28t-102.5 27t-87 52t-35.5 91q0 53 35 91q-35 35 -35 89q0 75 63.5 119t148.5 44q59 0 114.5 -21.5
t88.5 -56.5l-74 -63q-44 44 -123 44q-45 0 -76 -16.5t-31 -43.5q0 -24 26 -40.5t64.5 -24.5t83.5 -21.5t83.5 -29.5t64.5 -50t26 -82zM188 420q0 -17 12.5 -30t37 -22t49.5 -15.5t61 -15.5t60 -18q16 18 16 37q0 17 -12.5 30t-37 21.5t-49 15t-60.5 15.5t-60 17
q-17 -14 -17 -35z" />
    <glyph glyph-name="dieresis" unicode="&#xa8;" horiz-adv-x="82" 
d="M127 634q-26 0 -45 18.5t-19 44.5t19 44.5t45 18.5t44.5 -18.5t18.5 -44.5q0 -25 -19 -44t-44 -19zM320 634q-26 0 -44.5 19t-18.5 44q0 26 18.5 44.5t44.5 18.5t45 -18.5t19 -44.5t-19 -44.5t-45 -18.5z" />
    <glyph glyph-name="copyright" unicode="&#xa9;" horiz-adv-x="884" 
d="M442 -10q-159 0 -272 113t-113 272t113 272t272 113t272 -113t113 -272t-113 -272t-272 -113zM442 52q136 0 230 94t94 229t-94 229t-230 94q-135 0 -229 -94t-94 -229t94 -229t229 -94zM459 180q-83 0 -141.5 55.5t-58.5 135.5t58.5 136t141.5 56q52 0 95 -25v-70l-4 -2
q-37 32 -88 32q-54 0 -92 -35t-38 -92q0 -56 38 -90.5t92 -34.5q51 0 87 28l5 1v-70q-44 -25 -95 -25z" />
    <glyph glyph-name="ordfeminine" unicode="&#xaa;" horiz-adv-x="411" 
d="M290 750h68v-300h-68v51q-41 -57 -110 -57q-62 0 -106 45.5t-44 110.5t44 110.5t106 45.5q69 0 110 -57v51zM194 504q39 0 67.5 28t28.5 68q0 39 -28.5 67t-67.5 28q-40 0 -68 -27.5t-28 -67.5t28 -68t68 -28z" />
    <glyph glyph-name="guillemotleft" unicode="&#xab;" horiz-adv-x="673" 
d="M264 95l-152 184l152 184h91l-152 -184l152 -184h-91zM469 95l-152 184l152 184h93l-152 -184l152 -184h-93z" />
    <glyph glyph-name="logicalnot" unicode="&#xac;" horiz-adv-x="801" 
d="M634 108v256h-543v77h619v-333h-76z" />
    <glyph glyph-name="uni00AD" unicode="&#xad;" horiz-adv-x="608" 
d="M55 215v90h350v-90h-350z" />
    <glyph glyph-name="registered" unicode="&#xae;" horiz-adv-x="884" 
d="M442 760q159 0 272 -113t113 -272t-113 -272t-272 -113t-272 113t-113 272t113 272t272 113zM442 52q136 0 230 94t94 229t-94 229t-230 94q-135 0 -229 -94t-94 -229t94 -229t229 -94zM582 456q0 -35 -20 -64t-52 -42l92 -169h-64l-90 161h-53v-161h-57v388h129
q48 0 81.5 -33t33.5 -80zM395 512v-113h72q24 0 40.5 16.5t16.5 40.5q0 23 -16.5 39.5t-40.5 16.5h-72z" />
    <glyph glyph-name="macron" unicode="&#xaf;" horiz-adv-x="62" 
d="M31 597v69h310v-69h-310z" />
    <glyph glyph-name="degree" unicode="&#xb0;" horiz-adv-x="490" 
d="M245 492q-55 0 -94.5 39t-39.5 95t39.5 95t94.5 39t94.5 -39t39.5 -95t-39.5 -95t-94.5 -39zM245 548q33 0 55.5 22.5t22.5 55.5t-22.5 55.5t-55.5 22.5t-55.5 -22.5t-22.5 -55.5t22.5 -55.5t55.5 -22.5z" />
    <glyph glyph-name="plusminus" unicode="&#xb1;" horiz-adv-x="795" 
d="M434 440h310v-73h-310v-180h-72v180h-311v73h311v180h72v-180zM51 0v66h693v-66h-693z" />
    <glyph glyph-name="uni00B2" unicode="&#xb2;" horiz-adv-x="347" 
d="M50 380v40q129 134 156.5 168t27.5 61q0 30 -17.5 46t-43.5 16q-28 0 -45.5 -17.5t-16.5 -46.5h-54q-1 50 33 81.5t85 31.5q48 0 80 -28t33 -75q1 -43 -26.5 -79.5t-136.5 -148.5h173v-49h-248z" />
    <glyph glyph-name="uni00B3" unicode="&#xb3;" horiz-adv-x="361" 
d="M225 592q64 -31 64 -98q0 -50 -35 -84.5t-85 -34.5t-85 31.5t-35 77.5l56 1q0 -24 18.5 -40.5t45.5 -16.5t45.5 19t18.5 47t-18.5 47t-45.5 19h-30v45h26q22 0 37 15.5t15 38.5q0 21 -15 35t-37 14q-20 0 -34.5 -13t-14.5 -32l-54 1q0 40 30 68t73 28t73.5 -28t30.5 -68
q0 -48 -44 -72z" />
    <glyph glyph-name="acute" unicode="&#xb4;" horiz-adv-x="72" 
d="M86 554l-41 46l149 160l57 -64z" />
    <glyph glyph-name="uni00B5" unicode="&#xb5;" horiz-adv-x="602" 
d="M432 500h103v-500h-103v68q-60 -78 -156 -78q-65 0 -118 40v-280h-77v750h103v-299q0 -50 35.5 -85t85.5 -35q52 0 89.5 35t37.5 85v299z" />
    <glyph glyph-name="paragraph" unicode="&#xb6;" horiz-adv-x="637" 
d="M305 -150v565h-26q-84 0 -131 43.5t-47 124.5t47 124t131 43h84v-900h-58zM457 -150v900h59v-900h-59z" />
    <glyph glyph-name="periodcentered" unicode="&#xb7;" horiz-adv-x="287" 
d="M143 308q-21 0 -36.5 15t-15.5 37q0 21 15.5 36.5t36.5 15.5t37 -15.5t16 -36.5q0 -22 -16 -37t-37 -15z" />
    <glyph glyph-name="cedilla" unicode="&#xb8;" horiz-adv-x="57" 
d="M148 -260q-37 0 -70.5 20.5t-46.5 50.5l54 19q9 -13 27.5 -22.5t35.5 -9.5q20 0 34 14t14 35q0 31 -26 41t-64 -6l-46 28l48 90h59l-33 -63q49 10 84.5 -16.5t35.5 -73.5q0 -45 -31 -76t-75 -31z" />
    <glyph glyph-name="uni00B9" unicode="&#xb9;" horiz-adv-x="231" 
d="M91 375v326h-55v49h111v-375h-56z" />
    <glyph glyph-name="ordmasculine" unicode="&#xba;" horiz-adv-x="388" 
d="M194 444q-69 0 -116.5 45.5t-47.5 110.5t47.5 110.5t116.5 45.5q68 0 116 -45.5t48 -110.5t-48 -110.5t-116 -45.5zM194 504q39 0 67.5 28t28.5 68q0 39 -28.5 67t-67.5 28q-40 0 -68 -27.5t-28 -67.5t28 -68t68 -28z" />
    <glyph glyph-name="guillemotright" unicode="&#xbb;" horiz-adv-x="673" 
d="M111 95l152 184l-152 184h91l152 -184l-152 -184h-91zM316 95l152 184l-152 184h93l152 -184l-152 -184h-93z" />
    <glyph glyph-name="questiondown" unicode="&#xbf;" horiz-adv-x="557" 
d="M287 381q-29 0 -49 20t-20 48t20 47.5t49 19.5q28 0 48 -19.5t20 -47.5t-20 -48t-48 -20zM291 -250q-98 0 -164 62t-66 155q0 47 13.5 81t33 51.5t43 32.5t43 24.5t33 27.5t13.5 43v63h100v-54q0 -46 -13.5 -77t-33.5 -44.5t-43.5 -27t-43.5 -24t-33.5 -35t-13.5 -61.5
q0 -52 37.5 -86t94.5 -34q58 0 94.5 38t34.5 95h99q4 -98 -61.5 -164t-166.5 -66z" />
    <glyph glyph-name="Agrave" unicode="&#xc0;" horiz-adv-x="725" 
d="M407 849l-40 -44l-166 141l58 64zM603 0l-62 161h-357l-62 -161h-125l301 750h129l301 -750h-125zM224 264h278l-139 362z" />
    <glyph glyph-name="Aacute" unicode="&#xc1;" horiz-adv-x="725" 
d="M514 946l-165 -142l-41 46l149 160zM603 0l-62 161h-357l-62 -161h-125l301 750h129l301 -750h-125zM224 264h278l-139 362z" />
    <glyph glyph-name="Acircumflex" unicode="&#xc2;" horiz-adv-x="725" 
d="M363 933l-102 -110l-50 31l107 146h89l108 -146l-50 -31zM603 0l-62 161h-357l-62 -161h-125l301 750h129l301 -750h-125zM224 264h278l-139 362z" />
    <glyph glyph-name="Atilde" unicode="&#xc3;" horiz-adv-x="725" 
d="M299 903q-40 0 -40 -74h-74q0 64 30 105t82 41q57 0 96 -56q15 -23 34 -23q41 0 41 74h72q0 -64 -29 -105t-83 -41q-56 0 -96 56q-14 23 -33 23zM603 0l-62 161h-357l-62 -161h-125l301 750h129l301 -750h-125zM224 264h278l-139 362z" />
    <glyph glyph-name="Adieresis" unicode="&#xc4;" horiz-adv-x="725" 
d="M267 884q-26 0 -45 18.5t-19 44.5t19 44.5t45 18.5t44.5 -18.5t18.5 -44.5q0 -25 -19 -44t-44 -19zM460 884q-26 0 -44.5 19t-18.5 44q0 26 18.5 44.5t44.5 18.5t45 -18.5t19 -44.5t-19 -44.5t-45 -18.5zM603 0l-62 161h-357l-62 -161h-125l301 750h129l301 -750h-125z
M224 264h278l-139 362z" />
    <glyph glyph-name="Aring" unicode="&#xc5;" horiz-adv-x="725" 
d="M603 0l-62 161h-357l-62 -161h-125l291 726q-39 34 -39 85q0 46 33 78.5t79 32.5t78.5 -32.5t32.5 -78.5q0 -49 -36 -82l292 -729h-125zM361 871q-24 0 -41 -18t-17 -42q0 -26 16.5 -43t41.5 -17t42 17t17 43q0 24 -17.5 42t-41.5 18zM224 264h278l-139 362z" />
    <glyph glyph-name="AE" unicode="&#xc6;" horiz-adv-x="897" 
d="M852 643h-313v-217h271v-101h-271v-218h313v-107h-425v170h-235l-65 -170h-130l301 750h554v-107zM231 269h196v383h-49z" />
    <glyph glyph-name="Ccedilla" unicode="&#xc7;" horiz-adv-x="769" 
d="M452 104q117 0 197 86l86 -75q-49 -53 -119.5 -86.5t-143.5 -37.5l-28 -54q49 10 84.5 -16.5t35.5 -73.5q0 -45 -31 -76t-75 -31q-37 0 -70.5 20.5t-46.5 50.5l54 19q9 -13 27.5 -22.5t35.5 -9.5q20 0 34 14t14 35q0 31 -26 41t-64 -6l-46 28l44 82q-148 14 -247.5 123.5
t-99.5 259.5q0 161 112.5 273t272.5 112q79 0 155 -34t128 -91l-86 -75q-78 86 -197 86q-114 0 -192.5 -78.5t-78.5 -192.5t78.5 -192.5t192.5 -78.5z" />
    <glyph glyph-name="Egrave" unicode="&#xc8;" horiz-adv-x="568" 
d="M351 849l-40 -44l-166 141l58 64zM523 644h-318v-216h276v-106h-276v-216h318v-106h-433v750h433v-106z" />
    <glyph glyph-name="Eacute" unicode="&#xc9;" horiz-adv-x="568" 
d="M458 946l-165 -142l-41 46l149 160zM523 644h-318v-216h276v-106h-276v-216h318v-106h-433v750h433v-106z" />
    <glyph glyph-name="Ecircumflex" unicode="&#xca;" horiz-adv-x="568" 
d="M307 933l-102 -110l-50 31l107 146h89l108 -146l-50 -31zM523 644h-318v-216h276v-106h-276v-216h318v-106h-433v750h433v-106z" />
    <glyph glyph-name="Edieresis" unicode="&#xcb;" horiz-adv-x="568" 
d="M211 884q-26 0 -45 18.5t-19 44.5t19 44.5t45 18.5t44.5 -18.5t18.5 -44.5q0 -25 -19 -44t-44 -19zM404 884q-26 0 -44.5 19t-18.5 44q0 26 18.5 44.5t44.5 18.5t45 -18.5t19 -44.5t-19 -44.5t-45 -18.5zM523 644h-318v-216h276v-106h-276v-216h318v-106h-433v750h433
v-106z" />
    <glyph glyph-name="Igrave" unicode="&#xcc;" horiz-adv-x="294" 
d="M151 805l-166 141l58 64l148 -161zM90 0v750h115v-750h-115z" />
    <glyph glyph-name="Iacute" unicode="&#xcd;" horiz-adv-x="294" 
d="M133 804l-41 46l149 160l57 -64zM90 0v750h115v-750h-115z" />
    <glyph glyph-name="Icircumflex" unicode="&#xce;" horiz-adv-x="294" 
d="M45 823l-50 31l107 146h89l108 -146l-50 -31l-102 110zM90 0v750h115v-750h-115z" />
    <glyph glyph-name="Idieresis" unicode="&#xcf;" horiz-adv-x="294" 
d="M51 884q-26 0 -45 18.5t-19 44.5t19 44.5t45 18.5t44.5 -18.5t18.5 -44.5q0 -25 -19 -44t-44 -19zM244 884q-26 0 -44.5 19t-18.5 44q0 26 18.5 44.5t44.5 18.5t45 -18.5t19 -44.5t-19 -44.5t-45 -18.5zM90 0v750h115v-750h-115z" />
    <glyph glyph-name="Eth" unicode="&#xd0;" horiz-adv-x="741" 
d="M306 750q164 0 271 -108.5t107 -266.5t-107 -266.5t-271 -108.5h-222v332h-74v79h74v339h222zM302 108q116 0 190 76t74 191t-74 191t-190 76h-103v-231h126v-79h-126v-224h103z" />
    <glyph glyph-name="Ntilde" unicode="&#xd1;" horiz-adv-x="821" 
d="M346 903q-40 0 -40 -74h-74q0 64 30 105t82 41q57 0 96 -56q15 -23 34 -23q41 0 41 74h72q0 -64 -29 -105t-83 -41q-56 0 -96 56q-14 23 -33 23zM622 750h115v-750h-115l-423 571v-571h-115v750h114l424 -569v569z" />
    <glyph glyph-name="Ograve" unicode="&#xd2;" horiz-adv-x="884" 
d="M446 805l-166 141l58 64l148 -161zM442 -10q-160 0 -272.5 112.5t-112.5 272.5t112.5 272.5t272.5 112.5t272.5 -112.5t112.5 -272.5t-112.5 -272.5t-272.5 -112.5zM442 104q114 0 192.5 78.5t78.5 192.5t-78.5 192.5t-192.5 78.5q-113 0 -192 -78.5t-79 -192.5
t79 -192.5t192 -78.5z" />
    <glyph glyph-name="Oacute" unicode="&#xd3;" horiz-adv-x="884" 
d="M428 804l-41 46l149 160l57 -64zM442 -10q-160 0 -272.5 112.5t-112.5 272.5t112.5 272.5t272.5 112.5t272.5 -112.5t112.5 -272.5t-112.5 -272.5t-272.5 -112.5zM442 104q114 0 192.5 78.5t78.5 192.5t-78.5 192.5t-192.5 78.5q-113 0 -192 -78.5t-79 -192.5t79 -192.5
t192 -78.5z" />
    <glyph glyph-name="Ocircumflex" unicode="&#xd4;" horiz-adv-x="884" 
d="M340 823l-50 31l107 146h89l108 -146l-50 -31l-102 110zM442 -10q-160 0 -272.5 112.5t-112.5 272.5t112.5 272.5t272.5 112.5t272.5 -112.5t112.5 -272.5t-112.5 -272.5t-272.5 -112.5zM442 104q114 0 192.5 78.5t78.5 192.5t-78.5 192.5t-192.5 78.5q-113 0 -192 -78.5
t-79 -192.5t79 -192.5t192 -78.5z" />
    <glyph glyph-name="Otilde" unicode="&#xd5;" horiz-adv-x="884" 
d="M507 824q-56 0 -96 56q-14 23 -33 23q-40 0 -40 -74h-74q0 64 30 105t82 41q57 0 96 -56q15 -23 34 -23q41 0 41 74h72q0 -64 -29 -105t-83 -41zM442 -10q-160 0 -272.5 112.5t-112.5 272.5t112.5 272.5t272.5 112.5t272.5 -112.5t112.5 -272.5t-112.5 -272.5
t-272.5 -112.5zM442 104q114 0 192.5 78.5t78.5 192.5t-78.5 192.5t-192.5 78.5q-113 0 -192 -78.5t-79 -192.5t79 -192.5t192 -78.5z" />
    <glyph glyph-name="Odieresis" unicode="&#xd6;" horiz-adv-x="884" 
d="M346 884q-26 0 -45 18.5t-19 44.5t19 44.5t45 18.5t44.5 -18.5t18.5 -44.5q0 -25 -18.5 -44t-44.5 -19zM539 884q-25 0 -44 19t-19 44q0 26 18.5 44.5t44.5 18.5t45 -18.5t19 -44.5t-19 -44.5t-45 -18.5zM442 -10q-160 0 -272.5 112.5t-112.5 272.5t112.5 272.5
t272.5 112.5t272.5 -112.5t112.5 -272.5t-112.5 -272.5t-272.5 -112.5zM442 104q114 0 192.5 78.5t78.5 192.5t-78.5 192.5t-192.5 78.5q-113 0 -192 -78.5t-79 -192.5t79 -192.5t192 -78.5z" />
    <glyph glyph-name="multiply" unicode="&#xd7;" horiz-adv-x="749" 
d="M638 499l-189 -189l189 -189l-60 -61l-189 190l-190 -190l-60 61l189 189l-189 189l60 61l190 -189l189 189z" />
    <glyph glyph-name="Oslash" unicode="&#xd8;" horiz-adv-x="884" 
d="M698 663q60 -54 94.5 -128.5t34.5 -159.5q0 -160 -112.5 -272.5t-272.5 -112.5q-99 0 -182 46l-62 -89l-76 46l65 93q-61 54 -95.5 129t-34.5 160q0 160 112.5 272.5t272.5 112.5q96 0 183 -46l61 88l76 -47zM171 375q0 -116 81 -195l307 440q-54 26 -117 26
q-113 0 -192 -78.5t-79 -192.5zM442 104q114 0 192.5 78.5t78.5 192.5q0 116 -80 194l-308 -439q55 -26 117 -26z" />
    <glyph glyph-name="Ugrave" unicode="&#xd9;" horiz-adv-x="749" 
d="M378 805l-166 141l58 64l148 -161zM374 -10q-127 0 -210.5 72t-83.5 182v506h115v-486q0 -71 51 -118.5t128 -47.5t128 47.5t51 118.5v486h116v-506q0 -109 -84 -181.5t-211 -72.5z" />
    <glyph glyph-name="Uacute" unicode="&#xda;" horiz-adv-x="749" 
d="M360 804l-41 46l149 160l57 -64zM374 -10q-127 0 -210.5 72t-83.5 182v506h115v-486q0 -71 51 -118.5t128 -47.5t128 47.5t51 118.5v486h116v-506q0 -109 -84 -181.5t-211 -72.5z" />
    <glyph glyph-name="Ucircumflex" unicode="&#xdb;" horiz-adv-x="749" 
d="M272 823l-50 31l107 146h89l108 -146l-50 -31l-102 110zM374 -10q-127 0 -210.5 72t-83.5 182v506h115v-486q0 -71 51 -118.5t128 -47.5t128 47.5t51 118.5v486h116v-506q0 -109 -84 -181.5t-211 -72.5z" />
    <glyph glyph-name="Udieresis" unicode="&#xdc;" horiz-adv-x="749" 
d="M278 884q-26 0 -45 18.5t-19 44.5t19 44.5t45 18.5t44.5 -18.5t18.5 -44.5q0 -25 -18.5 -44t-44.5 -19zM471 884q-25 0 -44 19t-19 44q0 26 18.5 44.5t44.5 18.5t45 -18.5t19 -44.5t-19 -44.5t-45 -18.5zM374 -10q-127 0 -210.5 72t-83.5 182v506h115v-486
q0 -71 51 -118.5t128 -47.5t128 47.5t51 118.5v486h116v-506q0 -109 -84 -181.5t-211 -72.5z" />
    <glyph glyph-name="Yacute" unicode="&#xdd;" horiz-adv-x="627" 
d="M466 946l-165 -142l-41 46l149 160zM633 750l-261 -396v-354h-115v353l-263 397h136l184 -287l185 287h134z" />
    <glyph glyph-name="Thorn" unicode="&#xde;" horiz-adv-x="626" 
d="M378 644q89 0 152 -63t63 -154q0 -88 -63 -150t-152 -62h-176v-215h-111v747h111v-103h176zM372 320q49 0 80.5 31t31.5 79t-31.5 78.5t-80.5 30.5h-170v-219h170z" />
    <glyph glyph-name="germandbls" unicode="&#xdf;" horiz-adv-x="691" 
d="M509 388q51 -30 81 -79t30 -109q0 -87 -58 -144.5t-142 -55.5h-135v106h115q45 1 76.5 28t31.5 73q0 50 -37.5 86t-90.5 36h-48v92h20q50 0 85 35t35 84t-36.5 80.5t-92.5 31.5q-60 0 -100.5 -35.5t-40.5 -89.5v-527h-111v527q0 96 71.5 159.5t178.5 63.5q102 0 169 -59
t67 -149q0 -92 -68 -154z" />
    <glyph glyph-name="agrave" unicode="&#xe0;" horiz-adv-x="664" 
d="M358 599l-40 -44l-166 141l58 64zM468 500h112v-500h-112v63q-65 -73 -171 -73q-102 0 -175 76t-73 184t73 184t175 76q106 0 171 -73v63zM316 95q65 0 110 45t45 110t-45 110t-110 45t-110.5 -45t-45.5 -110t45.5 -110t110.5 -45z" />
    <glyph glyph-name="aacute" unicode="&#xe1;" horiz-adv-x="664" 
d="M465 696l-165 -142l-41 46l149 160zM468 500h112v-500h-112v63q-65 -73 -171 -73q-102 0 -175 76t-73 184t73 184t175 76q106 0 171 -73v63zM316 95q65 0 110 45t45 110t-45 110t-110 45t-110.5 -45t-45.5 -110t45.5 -110t110.5 -45z" />
    <glyph glyph-name="acircumflex" unicode="&#xe2;" horiz-adv-x="664" 
d="M314 683l-102 -110l-50 31l107 146h89l108 -146l-50 -31zM468 500h112v-500h-112v63q-65 -73 -171 -73q-102 0 -175 76t-73 184t73 184t175 76q106 0 171 -73v63zM316 95q65 0 110 45t45 110t-45 110t-110 45t-110.5 -45t-45.5 -110t45.5 -110t110.5 -45z" />
    <glyph glyph-name="atilde" unicode="&#xe3;" horiz-adv-x="664" 
d="M250 653q-40 0 -40 -74h-74q0 64 30 105t82 41q57 0 96 -56q15 -23 34 -23q41 0 41 74h72q0 -64 -29 -105t-83 -41q-56 0 -96 56q-14 23 -33 23zM468 500h112v-500h-112v63q-65 -73 -171 -73q-102 0 -175 76t-73 184t73 184t175 76q106 0 171 -73v63zM316 95q65 0 110 45
t45 110t-45 110t-110 45t-110.5 -45t-45.5 -110t45.5 -110t110.5 -45z" />
    <glyph glyph-name="adieresis" unicode="&#xe4;" horiz-adv-x="664" 
d="M218 634q-26 0 -45 18.5t-19 44.5t19 44.5t45 18.5t44.5 -18.5t18.5 -44.5q0 -25 -18.5 -44t-44.5 -19zM411 634q-25 0 -44 19t-19 44q0 26 18.5 44.5t44.5 18.5t45 -18.5t19 -44.5t-19 -44.5t-45 -18.5zM468 500h112v-500h-112v63q-65 -73 -171 -73q-102 0 -175 76
t-73 184t73 184t175 76q106 0 171 -73v63zM316 95q65 0 110 45t45 110t-45 110t-110 45t-110.5 -45t-45.5 -110t45.5 -110t110.5 -45z" />
    <glyph glyph-name="aring" unicode="&#xe5;" horiz-adv-x="664" 
d="M314 544q-46 0 -79 33t-33 79t33 78.5t79 32.5t78.5 -32.5t32.5 -78.5t-32.5 -79t-78.5 -33zM314 716q-24 0 -41 -18t-17 -42q0 -26 16.5 -43t41.5 -17t42 17t17 43q0 24 -17.5 42t-41.5 18zM468 500h112v-500h-112v63q-65 -73 -171 -73q-102 0 -175 76t-73 184t73 184
t175 76q106 0 171 -73v63zM316 95q65 0 110 45t45 110t-45 110t-110 45t-110.5 -45t-45.5 -110t45.5 -110t110.5 -45z" />
    <glyph glyph-name="ae" unicode="&#xe6;" horiz-adv-x="955" 
d="M906 254l-1 -24h-408q6 -62 49.5 -101.5t103.5 -39.5q89 0 135 76l95 -38q-31 -63 -92 -100t-136 -37q-132 0 -209 92q-98 -92 -211 -92q-84 0 -133.5 43t-49.5 114q0 74 53 115.5t143 41.5h137v21q0 44 -29 71t-75 28q-38 1 -67 -17t-36 -47l-104 31q20 54 76 86.5
t132 32.5q120 0 179 -77q75 77 191 77q109 0 182.5 -72t74.5 -184zM648 413q-49 0 -86 -26.5t-54 -71.5h276q-16 46 -51.5 72t-84.5 26zM247 79q38 0 79 23t72 62q-9 27 -12 58h-126q-46 0 -72 -19t-26 -54q0 -33 23 -51.5t62 -18.5z" />
    <glyph glyph-name="ccedilla" unicode="&#xe7;" horiz-adv-x="587" 
d="M316 95q49 0 87 25t55 68l100 -42q-28 -67 -85 -107.5t-130 -47.5l-28 -54q49 10 84.5 -16.5t35.5 -73.5q0 -45 -31 -76t-75 -31q-37 0 -70.5 20.5t-46.5 50.5l54 19q9 -13 27.5 -22.5t35.5 -9.5q20 0 34 14t14 35q0 31 -26.5 41t-63.5 -6l-46 28l44 82
q-101 11 -168.5 83.5t-67.5 174.5q0 110 77.5 185t189.5 75q82 0 146.5 -41.5t95.5 -113.5l-100 -43q-17 43 -55 68t-87 25q-68 0 -112 -44t-44 -111t44 -111t112 -44z" />
    <glyph glyph-name="egrave" unicode="&#xe8;" horiz-adv-x="619" 
d="M361 602l-40 -44l-166 141l58 64zM570 254l-1 -24h-408q6 -62 49.5 -101.5t103.5 -39.5q89 0 135 76l95 -38q-31 -63 -92 -100t-136 -37q-119 0 -193 74.5t-74 185.5q0 110 75 185t189 75q109 0 182.5 -72t74.5 -184zM312 413q-49 0 -86 -26.5t-54 -71.5h276
q-16 46 -51.5 72t-84.5 26z" />
    <glyph glyph-name="eacute" unicode="&#xe9;" horiz-adv-x="619" 
d="M468 699l-165 -142l-41 46l149 160zM570 254l-1 -24h-408q6 -62 49.5 -101.5t103.5 -39.5q89 0 135 76l95 -38q-31 -63 -92 -100t-136 -37q-119 0 -193 74.5t-74 185.5q0 110 75 185t189 75q109 0 182.5 -72t74.5 -184zM312 413q-49 0 -86 -26.5t-54 -71.5h276
q-16 46 -51.5 72t-84.5 26z" />
    <glyph glyph-name="ecircumflex" unicode="&#xea;" horiz-adv-x="619" 
d="M317 686l-102 -110l-50 31l107 146h89l108 -146l-50 -31zM570 254l-1 -24h-408q6 -62 49.5 -101.5t103.5 -39.5q89 0 135 76l95 -38q-31 -63 -92 -100t-136 -37q-119 0 -193 74.5t-74 185.5q0 110 75 185t189 75q109 0 182.5 -72t74.5 -184zM312 413q-49 0 -86 -26.5
t-54 -71.5h276q-16 46 -51.5 72t-84.5 26z" />
    <glyph glyph-name="edieresis" unicode="&#xeb;" horiz-adv-x="619" 
d="M221 637q-26 0 -45 18.5t-19 44.5t19 44.5t45 18.5t44.5 -18.5t18.5 -44.5t-19 -44.5t-44 -18.5zM414 637q-26 0 -44.5 18.5t-18.5 44.5t18.5 44.5t44.5 18.5t45 -18.5t19 -44.5t-19 -44.5t-45 -18.5zM570 254l-1 -24h-408q6 -62 49.5 -101.5t103.5 -39.5q89 0 135 76
l95 -38q-31 -63 -92 -100t-136 -37q-119 0 -193 74.5t-74 185.5q0 110 75 185t189 75q109 0 182.5 -72t74.5 -184zM312 413q-49 0 -86 -26.5t-54 -71.5h276q-16 46 -51.5 72t-84.5 26z" />
    <glyph glyph-name="igrave" unicode="&#xec;" horiz-adv-x="292" 
d="M150 555l-166 141l58 64l148 -161zM91 0v500h111v-500h-111z" />
    <glyph glyph-name="iacute" unicode="&#xed;" horiz-adv-x="292" 
d="M132 554l-41 46l149 160l57 -64zM91 0v500h111v-500h-111z" />
    <glyph glyph-name="icircumflex" unicode="&#xee;" horiz-adv-x="292" 
d="M44 573l-50 31l107 146h89l108 -146l-50 -31l-102 110zM91 0v500h111v-500h-111z" />
    <glyph glyph-name="idieresis" unicode="&#xef;" horiz-adv-x="292" 
d="M50 634q-26 0 -45 18.5t-19 44.5t19 44.5t45 18.5t44.5 -18.5t18.5 -44.5q0 -25 -18.5 -44t-44.5 -19zM243 634q-25 0 -44 19t-19 44q0 26 18.5 44.5t44.5 18.5t45 -18.5t19 -44.5t-19 -44.5t-45 -18.5zM91 0v500h111v-500h-111z" />
    <glyph glyph-name="eth" unicode="&#xf0;" horiz-adv-x="636" 
d="M397 684q91 -59 144.5 -159.5t53.5 -219.5q0 -146 -77.5 -230.5t-195.5 -84.5q-114 0 -193.5 75.5t-79.5 184.5t79.5 184.5t193.5 75.5q70 0 135 -31q-36 87 -111 139l-50 -64l-46 36l44 56q-67 29 -140 29l21 75q90 0 172 -38l52 66l45 -33zM322 94q65 0 110.5 45.5
t45.5 110.5t-45.5 110.5t-110.5 45.5t-110.5 -45.5t-45.5 -110.5t45.5 -110.5t110.5 -45.5z" />
    <glyph glyph-name="ntilde" unicode="&#xf1;" horiz-adv-x="578" 
d="M232 653q-40 0 -40 -74h-74q0 64 30 105t82 41q57 0 96 -56q15 -23 34 -23q41 0 41 74h72q0 -64 -29 -105t-83 -41q-56 0 -96 56q-14 23 -33 23zM324 510q75 0 127.5 -54t52.5 -131v-325h-111v315q0 40 -28 67t-69 27q-43 0 -72 -28.5t-29 -69.5v-311h-111v500h111v-42
q54 52 129 52z" />
    <glyph glyph-name="ograve" unicode="&#xf2;" horiz-adv-x="632" 
d="M320 555l-166 141l58 64l148 -161zM316 -10q-112 0 -189.5 75.5t-77.5 184.5t77.5 184.5t189.5 75.5q111 0 189 -75.5t78 -184.5t-78 -184.5t-189 -75.5zM316 95q65 0 110 45t45 110t-45 110t-110 45t-110.5 -45t-45.5 -110t45.5 -110t110.5 -45z" />
    <glyph glyph-name="oacute" unicode="&#xf3;" horiz-adv-x="632" 
d="M302 554l-41 46l149 160l57 -64zM316 -10q-112 0 -189.5 75.5t-77.5 184.5t77.5 184.5t189.5 75.5q111 0 189 -75.5t78 -184.5t-78 -184.5t-189 -75.5zM316 95q65 0 110 45t45 110t-45 110t-110 45t-110.5 -45t-45.5 -110t45.5 -110t110.5 -45z" />
    <glyph glyph-name="ocircumflex" unicode="&#xf4;" horiz-adv-x="632" 
d="M214 573l-50 31l107 146h89l108 -146l-50 -31l-102 110zM316 -10q-112 0 -189.5 75.5t-77.5 184.5t77.5 184.5t189.5 75.5q111 0 189 -75.5t78 -184.5t-78 -184.5t-189 -75.5zM316 95q65 0 110 45t45 110t-45 110t-110 45t-110.5 -45t-45.5 -110t45.5 -110t110.5 -45z
" />
    <glyph glyph-name="otilde" unicode="&#xf5;" horiz-adv-x="632" 
d="M381 574q-56 0 -96 56q-14 23 -33 23q-40 0 -40 -74h-74q0 64 30 105t82 41q57 0 96 -56q15 -23 34 -23q41 0 41 74h72q0 -64 -29 -105t-83 -41zM316 -10q-112 0 -189.5 75.5t-77.5 184.5t77.5 184.5t189.5 75.5q111 0 189 -75.5t78 -184.5t-78 -184.5t-189 -75.5z
M316 95q65 0 110 45t45 110t-45 110t-110 45t-110.5 -45t-45.5 -110t45.5 -110t110.5 -45z" />
    <glyph glyph-name="odieresis" unicode="&#xf6;" horiz-adv-x="632" 
d="M220 634q-26 0 -45 18.5t-19 44.5t19 44.5t45 18.5t44.5 -18.5t18.5 -44.5q0 -25 -18.5 -44t-44.5 -19zM413 634q-25 0 -44 19t-19 44q0 26 18.5 44.5t44.5 18.5t45 -18.5t19 -44.5t-19 -44.5t-45 -18.5zM316 -10q-112 0 -189.5 75.5t-77.5 184.5t77.5 184.5t189.5 75.5
q111 0 189 -75.5t78 -184.5t-78 -184.5t-189 -75.5zM316 95q65 0 110 45t45 110t-45 110t-110 45t-110.5 -45t-45.5 -110t45.5 -110t110.5 -45z" />
    <glyph glyph-name="divide" unicode="&#xf7;" horiz-adv-x="722" 
d="M361 384q-25 0 -43 17.5t-18 43.5q0 25 18.5 43t42.5 18q25 0 43.5 -18t18.5 -43q0 -26 -18.5 -43.5t-43.5 -17.5zM61 246v58h600v-58h-600zM361 44q-25 0 -43 17.5t-18 43.5q0 25 18.5 43t42.5 18q25 0 43.5 -18t18.5 -43q0 -26 -18.5 -43.5t-43.5 -17.5z" />
    <glyph glyph-name="oslash" unicode="&#xf8;" horiz-adv-x="632" 
d="M490 447q93 -77 93 -197q0 -109 -78 -184.5t-189 -75.5q-64 0 -124 29l-41 -58l-52 31l42 61q-92 77 -92 197q0 109 77.5 184.5t189.5 75.5q68 0 124 -29l40 58l52 -32zM160 250q0 -63 43 -108l175 250q-27 13 -62 13q-65 0 -110.5 -45t-45.5 -110zM316 95q65 0 110 45
t45 110q0 63 -43 108l-175 -250q27 -13 63 -13z" />
    <glyph glyph-name="ugrave" unicode="&#xf9;" horiz-adv-x="551" 
d="M280 555l-166 141l58 64l148 -161zM276 -10q-96 0 -151.5 52.5t-55.5 142.5v315h112v-302q0 -47 26.5 -75t68.5 -28t68 28t26 75v302h112v-315q0 -90 -55.5 -142.5t-150.5 -52.5z" />
    <glyph glyph-name="uacute" unicode="&#xfa;" horiz-adv-x="551" 
d="M262 554l-41 46l149 160l57 -64zM276 -10q-96 0 -151.5 52.5t-55.5 142.5v315h112v-302q0 -47 26.5 -75t68.5 -28t68 28t26 75v302h112v-315q0 -90 -55.5 -142.5t-150.5 -52.5z" />
    <glyph glyph-name="ucircumflex" unicode="&#xfb;" horiz-adv-x="551" 
d="M174 573l-50 31l107 146h89l108 -146l-50 -31l-102 110zM276 -10q-96 0 -151.5 52.5t-55.5 142.5v315h112v-302q0 -47 26.5 -75t68.5 -28t68 28t26 75v302h112v-315q0 -90 -55.5 -142.5t-150.5 -52.5z" />
    <glyph glyph-name="udieresis" unicode="&#xfc;" horiz-adv-x="551" 
d="M180 634q-26 0 -45 18.5t-19 44.5t19 44.5t45 18.5t44.5 -18.5t18.5 -44.5q0 -25 -18.5 -44t-44.5 -19zM373 634q-25 0 -44 19t-19 44q0 26 18.5 44.5t44.5 18.5t45 -18.5t19 -44.5t-19 -44.5t-45 -18.5zM276 -10q-96 0 -151.5 52.5t-55.5 142.5v315h112v-302
q0 -47 26.5 -75t68.5 -28t68 28t26 75v302h112v-315q0 -90 -55.5 -142.5t-150.5 -52.5z" />
    <glyph glyph-name="yacute" unicode="&#xfd;" horiz-adv-x="525" 
d="M414 696l-165 -142l-41 46l149 160zM398 500h123l-211 -528l-90 -222h-116l104 256l-204 494h122l138 -363z" />
    <glyph glyph-name="thorn" unicode="&#xfe;" horiz-adv-x="662" 
d="M365 510q102 0 175 -76t73 -184t-73 -184t-175 -76q-101 0 -167 66v-306h-112v1000h112v-306q66 66 167 66zM349 95q65 0 110.5 45t45.5 110t-45.5 110t-110.5 45t-110 -45t-45 -110t45 -110t110 -45z" />
    <glyph glyph-name="ydieresis" unicode="&#xff;" horiz-adv-x="525" 
d="M167 634q-26 0 -45 18.5t-19 44.5t19 44.5t45 18.5t44.5 -18.5t18.5 -44.5q0 -25 -19 -44t-44 -19zM360 634q-26 0 -44.5 19t-18.5 44q0 26 18.5 44.5t44.5 18.5t45 -18.5t19 -44.5t-19 -44.5t-45 -18.5zM398 500h123l-211 -528l-90 -222h-116l104 256l-204 494h122
l138 -363z" />
    <glyph glyph-name="Amacron" unicode="&#x100;" horiz-adv-x="725" 
d="M518 916v-69h-310v69h310zM603 0l-62 161h-357l-62 -161h-125l301 750h129l301 -750h-125zM224 264h278l-139 362z" />
    <glyph glyph-name="amacron" unicode="&#x101;" horiz-adv-x="664" 
d="M469 666v-69h-310v69h310zM468 500h112v-500h-112v63q-65 -73 -171 -73q-102 0 -175 76t-73 184t73 184t175 76q106 0 171 -73v63zM316 95q65 0 110 45t45 110t-45 110t-110 45t-110.5 -45t-45.5 -110t45.5 -110t110.5 -45z" />
    <glyph glyph-name="Abreve" unicode="&#x102;" horiz-adv-x="725" 
d="M362 812q-76 0 -123.5 43t-47.5 119h66q0 -39 30 -67.5t75 -28.5q47 0 77 28.5t30 67.5h66q0 -76 -47.5 -119t-125.5 -43zM603 0l-62 161h-357l-62 -161h-125l301 750h129l301 -750h-125zM224 264h278l-139 362z" />
    <glyph glyph-name="abreve" unicode="&#x103;" horiz-adv-x="664" 
d="M313 562q-76 0 -123.5 43t-47.5 119h66q0 -39 30 -67.5t75 -28.5q47 0 77 28.5t30 67.5h66q0 -76 -47.5 -119t-125.5 -43zM468 500h112v-500h-112v63q-65 -73 -171 -73q-102 0 -175 76t-73 184t73 184t175 76q106 0 171 -73v63zM316 95q65 0 110 45t45 110t-45 110
t-110 45t-110.5 -45t-45.5 -110t45.5 -110t110.5 -45z" />
    <glyph glyph-name="Aogonek" unicode="&#x104;" horiz-adv-x="725" 
d="M751 -153l36 -51q-58 -60 -143 -55q-54 3 -86 33.5t-32 78.5q0 83 103 147h-26l-62 161h-357l-62 -161h-125l301 750h129l301 -750q-63 -32 -96 -63t-33 -74q0 -28 16.5 -44.5t45.5 -16.5q53 0 90 45zM224 264h278l-139 362z" />
    <glyph glyph-name="aogonek" unicode="&#x105;" horiz-adv-x="664" 
d="M603 -153l36 -51q-58 -60 -143 -55q-54 3 -86 33.5t-32 78.5q0 83 103 147h-13v63q-65 -73 -171 -73q-102 0 -175 76t-73 184t73 184t175 76q106 0 171 -73v63h112v-500q-63 -32 -96 -63t-33 -74q0 -28 16.5 -44.5t45.5 -16.5q53 0 90 45zM316 95q65 0 110 45t45 110
t-45 110t-110 45t-110.5 -45t-45.5 -110t45.5 -110t110.5 -45z" />
    <glyph glyph-name="Cacute" unicode="&#x106;" horiz-adv-x="769" 
d="M442 804l-41 46l149 160l57 -64zM452 -10q-160 0 -272.5 112t-112.5 273t112.5 273t272.5 112q79 0 155 -34t128 -91l-86 -75q-78 86 -197 86q-114 0 -192.5 -78.5t-78.5 -192.5t78.5 -192.5t192.5 -78.5q117 0 197 86l86 -75q-52 -57 -128 -91t-155 -34z" />
    <glyph glyph-name="cacute" unicode="&#x107;" horiz-adv-x="587" 
d="M303 554l-41 46l149 160l57 -64zM316 -10q-112 0 -189.5 75t-77.5 185t77.5 185t189.5 75q82 0 146.5 -41.5t95.5 -113.5l-100 -43q-17 43 -55 68t-87 25q-68 0 -112 -44t-44 -111t44 -111t112 -44q49 0 87 25t55 68l100 -42q-31 -73 -95.5 -114.5t-146.5 -41.5z" />
    <glyph glyph-name="Cdotaccent" unicode="&#x10a;" horiz-adv-x="769" 
d="M456 875q-28 0 -48 19.5t-20 47.5t20 48t48 20t48 -20t20 -48t-20 -47.5t-48 -19.5zM452 -10q-160 0 -272.5 112t-112.5 273t112.5 273t272.5 112q79 0 155 -34t128 -91l-86 -75q-78 86 -197 86q-114 0 -192.5 -78.5t-78.5 -192.5t78.5 -192.5t192.5 -78.5q117 0 197 86
l86 -75q-52 -57 -128 -91t-155 -34z" />
    <glyph glyph-name="cdotaccent" unicode="&#x10b;" horiz-adv-x="587" 
d="M317 625q-28 0 -48 19.5t-20 47.5t20 48t48 20t48 -20t20 -48t-20 -47.5t-48 -19.5zM316 -10q-112 0 -189.5 75t-77.5 185t77.5 185t189.5 75q82 0 146.5 -41.5t95.5 -113.5l-100 -43q-17 43 -55 68t-87 25q-68 0 -112 -44t-44 -111t44 -111t112 -44q49 0 87 25t55 68
l100 -42q-31 -73 -95.5 -114.5t-146.5 -41.5z" />
    <glyph glyph-name="Ccaron" unicode="&#x10c;" horiz-adv-x="769" 
d="M411 823l-107 146l50 31l102 -110l102 110l50 -31l-108 -146h-89zM452 -10q-160 0 -272.5 112t-112.5 273t112.5 273t272.5 112q79 0 155 -34t128 -91l-86 -75q-78 86 -197 86q-114 0 -192.5 -78.5t-78.5 -192.5t78.5 -192.5t192.5 -78.5q117 0 197 86l86 -75
q-52 -57 -128 -91t-155 -34z" />
    <glyph glyph-name="ccaron" unicode="&#x10d;" horiz-adv-x="587" 
d="M272 573l-107 146l50 31l102 -110l102 110l50 -31l-108 -146h-89zM316 -10q-112 0 -189.5 75t-77.5 185t77.5 185t189.5 75q82 0 146.5 -41.5t95.5 -113.5l-100 -43q-17 43 -55 68t-87 25q-68 0 -112 -44t-44 -111t44 -111t112 -44q49 0 87 25t55 68l100 -42
q-31 -73 -95.5 -114.5t-146.5 -41.5z" />
    <glyph glyph-name="Dcaron" unicode="&#x10e;" horiz-adv-x="741" 
d="M260 823l-107 146l50 31l102 -110l102 110l50 -31l-108 -146h-89zM84 0v750h222q164 0 271 -108.5t107 -266.5t-107 -266.5t-271 -108.5h-222zM199 108h103q116 0 190 76t74 191t-74 191t-190 76h-103v-534z" />
    <glyph glyph-name="dcaron" unicode="&#x10f;" horiz-adv-x="783" 
d="M468 447v303h112v-750h-112v53q-69 -63 -164 -63q-107 0 -181 75.5t-74 184.5t74 184.5t181 75.5q95 0 164 -63zM709 750h113l-115 -259h-77zM316 95q65 0 110 45t45 110t-45 110t-110 45t-110.5 -45t-45.5 -110t45.5 -110t110.5 -45z" />
    <glyph glyph-name="Dcroat" unicode="&#x110;" horiz-adv-x="741" 
d="M306 750q164 0 271 -108.5t107 -266.5t-107 -266.5t-271 -108.5h-222v332h-74v79h74v339h222zM302 108q116 0 190 76t74 191t-74 191t-190 76h-103v-231h126v-79h-126v-224h103z" />
    <glyph glyph-name="dcroat" unicode="&#x111;" horiz-adv-x="660" 
d="M642 684v-71h-66v-613h-111v59q-63 -69 -168 -69q-102 0 -175 76t-73 184t73 184t175 76q105 0 168 -69v172h-138v71h138v66h111v-66h66zM316 95q65 0 110 45t45 110t-45 110t-110 45t-110.5 -45t-45.5 -110t45.5 -110t110.5 -45z" />
    <glyph glyph-name="Emacron" unicode="&#x112;" horiz-adv-x="568" 
d="M462 916v-69h-310v69h310zM523 644h-318v-216h276v-106h-276v-216h318v-106h-433v750h433v-106z" />
    <glyph glyph-name="emacron" unicode="&#x113;" horiz-adv-x="619" 
d="M472 669v-69h-310v69h310zM570 254l-1 -24h-408q6 -62 49.5 -101.5t103.5 -39.5q89 0 135 76l95 -38q-31 -63 -92 -100t-136 -37q-119 0 -193 74.5t-74 185.5q0 110 75 185t189 75q109 0 182.5 -72t74.5 -184zM312 413q-49 0 -86 -26.5t-54 -71.5h276q-16 46 -51.5 72
t-84.5 26z" />
    <glyph glyph-name="Edotaccent" unicode="&#x116;" horiz-adv-x="568" 
d="M307 875q-28 0 -48 19.5t-20 47.5t20 48t48 20t48 -20t20 -48t-20 -47.5t-48 -19.5zM523 644h-318v-216h276v-106h-276v-216h318v-106h-433v750h433v-106z" />
    <glyph glyph-name="edotaccent" unicode="&#x117;" horiz-adv-x="619" 
d="M317 628q-28 0 -48 19.5t-20 47.5t20 48t48 20t48 -20t20 -48t-20 -47.5t-48 -19.5zM570 254l-1 -24h-408q6 -62 49.5 -101.5t103.5 -39.5q89 0 135 76l95 -38q-31 -63 -92 -100t-136 -37q-119 0 -193 74.5t-74 185.5q0 110 75 185t189 75q109 0 182.5 -72t74.5 -184z
M312 413q-49 0 -86 -26.5t-54 -71.5h276q-16 46 -51.5 72t-84.5 26z" />
    <glyph glyph-name="Eogonek" unicode="&#x118;" horiz-adv-x="568" 
d="M546 -153l36 -51q-58 -60 -143 -55q-54 3 -86 33.5t-32 78.5q0 83 103 147h-334v750h433v-106h-318v-216h276v-106h-276v-216h318v-106q-63 -32 -96 -63t-33 -74q0 -28 16.5 -44.5t45.5 -16.5q53 0 90 45z" />
    <glyph glyph-name="eogonek" unicode="&#x119;" horiz-adv-x="619" 
d="M570 254l-1 -24h-408q6 -62 49.5 -101.5t103.5 -39.5q89 0 135 76l95 -38q-38 -79 -121 -115q-54 -29 -83 -58.5t-29 -69.5q0 -28 16.5 -44.5t45.5 -16.5q53 0 90 45l36 -51q-58 -60 -143 -55q-54 3 -86 33.5t-32 78.5q0 63 61 116q-112 6 -181 79.5t-69 180.5
q0 110 75 185t189 75q109 0 182.5 -72t74.5 -184zM312 413q-49 0 -86 -26.5t-54 -71.5h276q-16 46 -51.5 72t-84.5 26z" />
    <glyph glyph-name="Ecaron" unicode="&#x11a;" horiz-adv-x="568" 
d="M351 823h-89l-107 146l50 31l102 -110l102 110l50 -31zM523 644h-318v-216h276v-106h-276v-216h318v-106h-433v750h433v-106z" />
    <glyph glyph-name="ecaron" unicode="&#x11b;" horiz-adv-x="619" 
d="M361 576h-89l-107 146l50 31l102 -110l102 110l50 -31zM570 254l-1 -24h-408q6 -62 49.5 -101.5t103.5 -39.5q89 0 135 76l95 -38q-31 -63 -92 -100t-136 -37q-119 0 -193 74.5t-74 185.5q0 110 75 185t189 75q109 0 182.5 -72t74.5 -184zM312 413q-49 0 -86 -26.5
t-54 -71.5h276q-16 46 -51.5 72t-84.5 26z" />
    <glyph glyph-name="Gbreve" unicode="&#x11e;" horiz-adv-x="815" 
d="M441 812q-76 0 -123.5 43t-47.5 119h66q0 -39 30 -67.5t75 -28.5q47 0 77 28.5t30 67.5h66q0 -76 -47.5 -119t-125.5 -43zM454 423h290v-423h-100l-6 58q-80 -68 -200 -68q-161 0 -271 112t-110 273t112.5 273t272.5 112q79 0 155 -34t128 -91l-86 -75q-78 86 -197 86
q-114 0 -192.5 -78.5t-78.5 -192.5q0 -115 76.5 -193t190.5 -78q119 0 192 78v133h-176v108z" />
    <glyph glyph-name="gbreve" unicode="&#x11f;" horiz-adv-x="667" 
d="M315 562q-76 0 -123.5 43t-47.5 119h66q0 -39 30 -67.5t75 -28.5q47 0 77 28.5t30 67.5h66q0 -76 -47.5 -119t-125.5 -43zM471 500h112v-500q0 -108 -78.5 -182.5t-191.5 -74.5q-72 0 -136.5 34.5t-104.5 94.5l77 68q26 -44 69 -70.5t93 -26.5q66 0 113 44.5t47 112.5v54
q-67 -64 -167 -64q-107 0 -181 75.5t-74 184.5t74 184.5t181 75.5q99 0 167 -66v56zM316 95q64 0 109.5 45.5t45.5 109.5q0 65 -45 110t-110 45t-110.5 -45t-45.5 -110t45.5 -110t110.5 -45z" />
    <glyph glyph-name="Gdotaccent" unicode="&#x120;" horiz-adv-x="815" 
d="M442 875q-28 0 -48 19.5t-20 47.5t20 48t48 20t48 -20t20 -48t-20 -47.5t-48 -19.5zM454 423h290v-423h-100l-6 58q-80 -68 -200 -68q-161 0 -271 112t-110 273t112.5 273t272.5 112q79 0 155 -34t128 -91l-86 -75q-78 86 -197 86q-114 0 -192.5 -78.5t-78.5 -192.5
q0 -115 76.5 -193t190.5 -78q119 0 192 78v133h-176v108z" />
    <glyph glyph-name="gdotaccent" unicode="&#x121;" horiz-adv-x="667" 
d="M316 625q-28 0 -48 19.5t-20 47.5t20 48t48 20t48 -20t20 -48t-20 -47.5t-48 -19.5zM471 500h112v-500q0 -108 -78.5 -182.5t-191.5 -74.5q-72 0 -136.5 34.5t-104.5 94.5l77 68q26 -44 69 -70.5t93 -26.5q66 0 113 44.5t47 112.5v54q-67 -64 -167 -64q-107 0 -181 75.5
t-74 184.5t74 184.5t181 75.5q99 0 167 -66v56zM316 95q64 0 109.5 45.5t45.5 109.5q0 65 -45 110t-110 45t-110.5 -45t-45.5 -110t45.5 -110t110.5 -45z" />
    <glyph glyph-name="Hbar" unicode="&#x126;" horiz-adv-x="767" 
d="M747 617v-60h-64v-557h-116v321h-368v-321h-115v557h-65v60h65v133h115v-133h368v133h116v-133h64zM567 430v127h-368v-127h368z" />
    <glyph glyph-name="hbar" unicode="&#x127;" horiz-adv-x="578" 
d="M322 510q77 0 129.5 -53.5t52.5 -131.5v-325h-111v315q0 40 -28 67t-69 27q-43 0 -72 -28.5t-29 -69.5v-311h-111v613h-64v71h64v66h111v-66h140v-71h-140v-155q50 52 127 52z" />
    <glyph glyph-name="Imacron" unicode="&#x12a;" horiz-adv-x="294" 
d="M-8 847v69h310v-69h-310zM90 0v750h115v-750h-115z" />
    <glyph glyph-name="imacron" unicode="&#x12b;" horiz-adv-x="292" 
d="M-9 597v69h310v-69h-310zM91 0v500h111v-500h-111z" />
    <glyph glyph-name="Iogonek" unicode="&#x12e;" horiz-adv-x="294" 
d="M228 -153l36 -51q-58 -60 -143 -55q-54 3 -86 33.5t-32 78.5q0 83 103 147h-16v750h115v-750q-63 -32 -96 -63t-33 -74q0 -28 16.5 -44.5t45.5 -16.5q53 0 90 45z" />
    <glyph glyph-name="iogonek" unicode="&#x12f;" horiz-adv-x="292" 
d="M146 625q-28 0 -48 19.5t-20 47.5t20 48t48 20t48 -20t20 -48t-20 -47.5t-48 -19.5zM215 -153l36 -51q-58 -60 -143 -55q-54 3 -86 33.5t-32 78.5q0 83 103 147h-2v500h111v-500h-10q-63 -32 -96 -63t-33 -74q0 -28 16.5 -44.5t45.5 -16.5q53 0 90 45z" />
    <glyph glyph-name="Idotaccent" unicode="&#x130;" horiz-adv-x="294" 
d="M147 875q-28 0 -48 19.5t-20 47.5t20 48t48 20t48 -20t20 -48t-20 -47.5t-48 -19.5zM90 0v750h115v-750h-115z" />
    <glyph glyph-name="dotlessi" unicode="&#x131;" horiz-adv-x="292" 
d="M91 0v500h111v-500h-111z" />
    <glyph glyph-name="Lacute" unicode="&#x139;" horiz-adv-x="473" 
d="M292 946l-165 -142l-41 46l149 160zM199 108h267v-108h-382v750h115v-642z" />
    <glyph glyph-name="lacute" unicode="&#x13a;" horiz-adv-x="279" 
d="M126 804l-41 46l149 160l57 -64zM84 0v750h111v-750h-111z" />
    <glyph glyph-name="Lcaron" unicode="&#x13d;" horiz-adv-x="491" 
d="M199 750v-642h267v-108h-382v750h115zM479 750l-115 -259h-77l79 259h113z" />
    <glyph glyph-name="lcaron" unicode="&#x13e;" horiz-adv-x="392" 
d="M84 0v750h111v-750h-111zM316 491h-77l79 259h113z" />
    <glyph glyph-name="ldot" unicode="&#x140;" horiz-adv-x="309" 
d="M84 0v750h111v-750h-111zM288 342q-24 0 -40.5 17t-16.5 41q0 23 17 40t40 17t41 -17t18 -40q0 -24 -17.5 -41t-41.5 -17z" />
    <glyph glyph-name="Lslash" unicode="&#x141;" horiz-adv-x="473" 
d="M199 108h267v-108h-382v270l-52 -39l-43 55l95 71v393h115v-307l121 90l45 -55l-166 -123v-247z" />
    <glyph glyph-name="lslash" unicode="&#x142;" horiz-adv-x="279" 
d="M338 471l-143 -106v-365h-111v283l-75 -56l-43 54l118 88v381h111v-298l99 74z" />
    <glyph glyph-name="Nacute" unicode="&#x143;" horiz-adv-x="821" 
d="M561 946l-165 -142l-41 46l149 160zM622 750h115v-750h-115l-423 571v-571h-115v750h114l424 -569v569z" />
    <glyph glyph-name="nacute" unicode="&#x144;" horiz-adv-x="578" 
d="M447 696l-165 -142l-41 46l149 160zM324 510q75 0 127.5 -54t52.5 -131v-325h-111v315q0 40 -28 67t-69 27q-43 0 -72 -28.5t-29 -69.5v-311h-111v500h111v-42q54 52 129 52z" />
    <glyph glyph-name="Ncaron" unicode="&#x147;" horiz-adv-x="821" 
d="M454 823h-89l-107 146l50 31l102 -110l102 110l50 -31zM622 750h115v-750h-115l-423 571v-571h-115v750h114l424 -569v569z" />
    <glyph glyph-name="ncaron" unicode="&#x148;" horiz-adv-x="578" 
d="M340 573h-89l-107 146l50 31l102 -110l102 110l50 -31zM324 510q75 0 127.5 -54t52.5 -131v-325h-111v315q0 40 -28 67t-69 27q-43 0 -72 -28.5t-29 -69.5v-311h-111v500h111v-42q54 52 129 52z" />
    <glyph glyph-name="Eng" unicode="&#x14a;" horiz-adv-x="821" 
d="M622 750h115v-819q0 -89 -50 -125t-161 -36v88q54 -1 75 14t21 66v62l-423 567v-567h-115v750h114l424 -566v566z" />
    <glyph glyph-name="eng" unicode="&#x14b;" horiz-adv-x="581" 
d="M323 510q74 0 128.5 -56t54.5 -137v-386q0 -88 -44.5 -124.5t-135.5 -36.5v88q33 -1 50.5 15t17.5 65v373q0 40 -28 67t-69 27q-43 0 -72.5 -28t-29.5 -70v-307h-111v500h111v-46q53 56 128 56z" />
    <glyph glyph-name="Omacron" unicode="&#x14c;" horiz-adv-x="884" 
d="M287 847v69h310v-69h-310zM442 -10q-160 0 -272.5 112.5t-112.5 272.5t112.5 272.5t272.5 112.5t272.5 -112.5t112.5 -272.5t-112.5 -272.5t-272.5 -112.5zM442 104q114 0 192.5 78.5t78.5 192.5t-78.5 192.5t-192.5 78.5q-113 0 -192 -78.5t-79 -192.5t79 -192.5
t192 -78.5z" />
    <glyph glyph-name="omacron" unicode="&#x14d;" horiz-adv-x="632" 
d="M161 597v69h310v-69h-310zM316 -10q-112 0 -189.5 75.5t-77.5 184.5t77.5 184.5t189.5 75.5q111 0 189 -75.5t78 -184.5t-78 -184.5t-189 -75.5zM316 95q65 0 110 45t45 110t-45 110t-110 45t-110.5 -45t-45.5 -110t45.5 -110t110.5 -45z" />
    <glyph glyph-name="Ohungarumlaut" unicode="&#x150;" horiz-adv-x="884" 
d="M342 822l-49 55l165 149l54 -59zM542 822l-50 55l166 149l53 -59zM442 -10q-160 0 -272.5 112.5t-112.5 272.5t112.5 272.5t272.5 112.5t272.5 -112.5t112.5 -272.5t-112.5 -272.5t-272.5 -112.5zM442 104q114 0 192.5 78.5t78.5 192.5t-78.5 192.5t-192.5 78.5
q-113 0 -192 -78.5t-79 -192.5t79 -192.5t192 -78.5z" />
    <glyph glyph-name="ohungarumlaut" unicode="&#x151;" horiz-adv-x="632" 
d="M216 572l-49 55l165 149l54 -59zM416 572l-50 55l166 149l53 -59zM316 -10q-112 0 -189.5 75.5t-77.5 184.5t77.5 184.5t189.5 75.5q111 0 189 -75.5t78 -184.5t-78 -184.5t-189 -75.5zM316 95q65 0 110 45t45 110t-45 110t-110 45t-110.5 -45t-45.5 -110t45.5 -110
t110.5 -45z" />
    <glyph glyph-name="OE" unicode="&#x152;" horiz-adv-x="1186" 
d="M1141 646h-314v-219h272v-104h-272v-218h314v-105h-408v123q-54 -63 -129.5 -98t-161.5 -35q-160 0 -272.5 112.5t-112.5 272.5t112.5 272.5t272.5 112.5q86 0 161.5 -35t129.5 -98v123h408v-104zM443 101q113 0 193 80t80 194t-80 194t-193 80q-115 0 -195 -80t-80 -194
t80 -194t195 -80z" />
    <glyph glyph-name="oe" unicode="&#x153;" horiz-adv-x="1044" 
d="M995 254l-1 -24h-408q6 -62 49.5 -101.5t103.5 -39.5q89 0 135 76l95 -38q-31 -63 -92 -100t-136 -37q-138 0 -214 99q-81 -99 -211 -99q-112 0 -189.5 75.5t-77.5 184.5t77.5 184.5t189.5 75.5q63 0 118.5 -26.5t92.5 -73.5q77 100 211 100q109 0 182.5 -72t74.5 -184z
M737 413q-49 0 -86 -26.5t-54 -71.5h276q-16 46 -51.5 72t-84.5 26zM316 91q66 0 112 46.5t46 112.5t-46 112.5t-112 46.5q-67 0 -113 -46.5t-46 -112.5t46 -112.5t113 -46.5z" />
    <glyph glyph-name="Racute" unicode="&#x154;" horiz-adv-x="655" 
d="M476 946l-165 -142l-41 46l149 160zM424 329l216 -329h-134l-201 319h-106v-319h-115v750h289q90 0 152.5 -63.5t62.5 -154.5q0 -76 -46 -132.5t-118 -70.5zM199 421h162q49 0 82 31t33 79q0 49 -33 80t-82 31h-162v-221z" />
    <glyph glyph-name="racute" unicode="&#x155;" horiz-adv-x="380" 
d="M377 696l-165 -142l-41 46l149 160zM195 423q44 86 127 86q22 0 45 -9v-106q-20 10 -46 10q-55 0 -90.5 -41t-35.5 -106v-257h-111v500h111v-77z" />
    <glyph glyph-name="Rcaron" unicode="&#x158;" horiz-adv-x="655" 
d="M369 823h-89l-107 146l50 31l102 -110l102 110l50 -31zM424 329l216 -329h-134l-201 319h-106v-319h-115v750h289q90 0 152.5 -63.5t62.5 -154.5q0 -76 -46 -132.5t-118 -70.5zM199 421h162q49 0 82 31t33 79q0 49 -33 80t-82 31h-162v-221z" />
    <glyph glyph-name="rcaron" unicode="&#x159;" horiz-adv-x="380" 
d="M270 573h-89l-107 146l50 31l102 -110l102 110l50 -31zM195 423q44 86 127 86q22 0 45 -9v-106q-20 10 -46 10q-55 0 -90.5 -41t-35.5 -106v-257h-111v500h111v-77z" />
    <glyph glyph-name="Sacute" unicode="&#x15a;" horiz-adv-x="562" 
d="M270 804l-41 46l149 160l57 -64zM289 -10q-88 0 -157.5 43.5t-102.5 114.5l98 60q21 -50 63.5 -79t99.5 -29q56 0 91 27.5t35 75.5q0 33 -19.5 58t-51 41t-69.5 30.5t-76 32t-69.5 40t-51 60.5t-19.5 88q0 95 64 151t157 56q64 0 119.5 -27t91.5 -72l-81 -74
q-51 66 -130 66q-46 0 -76.5 -23.5t-30.5 -67.5q0 -32 19.5 -55.5t51 -39t69.5 -29.5t76 -32.5t69.5 -42.5t51 -64.5t19.5 -94.5q0 -98 -69 -156t-172 -58z" />
    <glyph glyph-name="sacute" unicode="&#x15b;" horiz-adv-x="438" 
d="M208 554l-41 46l149 160l57 -64zM229 -10q-60 0 -114 25.5t-80 66.5l79 57q38 -53 102 -56q35 -1 55.5 14.5t20.5 41.5q0 16 -13 29t-25 18.5t-48 18.5l-15 6q-67 24 -101 58.5t-34 90.5q0 68 49 109t125 41q46 0 89.5 -20t70.5 -55l-75 -60q-25 41 -82 44
q-30 2 -48 -11.5t-18 -39.5q0 -34 81 -65q3 -2 4.5 -2.5l4.5 -1.5t5 -2q30 -11 50.5 -22t44 -29t35.5 -43.5t12 -57.5q0 -69 -48 -112t-127 -43z" />
    <glyph glyph-name="Scedilla" unicode="&#x15e;" horiz-adv-x="562" 
d="M530 204q0 -93 -63.5 -151t-160.5 -63l-28 -53q49 10 84.5 -16.5t35.5 -73.5q0 -45 -31 -76t-75 -31q-37 0 -70.5 20.5t-46.5 50.5l54 19q9 -13 27.5 -22.5t35.5 -9.5q20 0 34 14t14 35q0 31 -26 41t-64 -6l-46 28l44 83q-74 10 -132 51.5t-87 103.5l98 60
q21 -50 63.5 -79t99.5 -29q56 0 91 27.5t35 75.5q0 33 -19.5 58t-51 41t-69.5 30.5t-76 32t-69.5 40t-51 60.5t-19.5 88q0 95 64 151t157 56q64 0 119.5 -27t91.5 -72l-81 -74q-51 66 -130 66q-46 0 -76.5 -23.5t-30.5 -67.5q0 -32 19.5 -55.5t51 -39t69.5 -29.5t76 -32.5
t69.5 -42.5t51 -64.5t19.5 -94.5z" />
    <glyph glyph-name="scedilla" unicode="&#x15f;" horiz-adv-x="438" 
d="M404 145q0 -65 -43.5 -108t-116.5 -47l-28 -53q49 10 84.5 -16.5t35.5 -73.5q0 -45 -31 -76t-75 -31q-37 0 -70.5 20.5t-46.5 50.5l54 19q9 -13 27.5 -22.5t35.5 -9.5q20 0 34 14t14 35q0 31 -26 41t-64 -6l-46 28l45 84q-49 7 -89.5 31t-62.5 57l79 57q38 -53 102 -56
q35 -1 55.5 14.5t20.5 41.5q0 16 -13 29t-25 18.5t-48 18.5l-15 6q-67 24 -101 58.5t-34 90.5q0 68 49 109t125 41q46 0 89.5 -20t70.5 -55l-75 -60q-25 41 -82 44q-30 2 -48 -11.5t-18 -39.5q0 -34 81 -65q3 -2 4.5 -2.5l4.5 -1.5t5 -2q30 -11 50.5 -22t44 -29t35.5 -43.5
t12 -57.5z" />
    <glyph glyph-name="Scaron" unicode="&#x160;" horiz-adv-x="562" 
d="M239 823l-107 146l50 31l102 -110l102 110l50 -31l-108 -146h-89zM289 -10q-88 0 -157.5 43.5t-102.5 114.5l98 60q21 -50 63.5 -79t99.5 -29q56 0 91 27.5t35 75.5q0 33 -19.5 58t-51 41t-69.5 30.5t-76 32t-69.5 40t-51 60.5t-19.5 88q0 95 64 151t157 56
q64 0 119.5 -27t91.5 -72l-81 -74q-51 66 -130 66q-46 0 -76.5 -23.5t-30.5 -67.5q0 -32 19.5 -55.5t51 -39t69.5 -29.5t76 -32.5t69.5 -42.5t51 -64.5t19.5 -94.5q0 -98 -69 -156t-172 -58z" />
    <glyph glyph-name="scaron" unicode="&#x161;" horiz-adv-x="438" 
d="M177 573l-107 146l50 31l102 -110l102 110l50 -31l-108 -146h-89zM229 -10q-60 0 -114 25.5t-80 66.5l79 57q38 -53 102 -56q35 -1 55.5 14.5t20.5 41.5q0 16 -13 29t-25 18.5t-48 18.5l-15 6q-67 24 -101 58.5t-34 90.5q0 68 49 109t125 41q46 0 89.5 -20t70.5 -55
l-75 -60q-25 41 -82 44q-30 2 -48 -11.5t-18 -39.5q0 -34 81 -65q3 -2 4.5 -2.5l4.5 -1.5t5 -2q30 -11 50.5 -22t44 -29t35.5 -43.5t12 -57.5q0 -69 -48 -112t-127 -43z" />
    <glyph glyph-name="uni0162" unicode="&#x162;" horiz-adv-x="534" 
d="M325 0h-28l-33 -63q49 10 84.5 -16.5t35.5 -73.5q0 -45 -31 -76t-75 -31q-37 0 -70.5 20.5t-46.5 50.5l54 19q9 -13 27.5 -22.5t35.5 -9.5q20 0 34 14t14 35q0 31 -26 41t-64 -6l-46 28l48 90h-28v642h-200v108h514v-108h-199v-642z" />
    <glyph glyph-name="uni0163" unicode="&#x163;" horiz-adv-x="358" 
d="M235 0h-26l-33 -63q49 10 84.5 -16.5t35.5 -73.5q0 -45 -31 -76t-75 -31q-37 0 -70.5 20.5t-46.5 50.5l54 19q9 -13 27.5 -22.5t35.5 -9.5q20 0 34 14t14 35q0 31 -26 41t-64 -6l-46 28l48 90h-27v406h-101v94h101v180h112v-180h101v-94h-101v-406z" />
    <glyph glyph-name="Tcaron" unicode="&#x164;" horiz-adv-x="534" 
d="M311 823h-89l-107 146l50 31l102 -110l102 110l50 -31zM524 750v-108h-199v-642h-115v642h-200v108h514z" />
    <glyph glyph-name="tcaron" unicode="&#x165;" horiz-adv-x="471" 
d="M379 857h113l-115 -252h-77zM232 680v-180h101v-96h-101v-404h-112v404h-101v96h101v180h112z" />
    <glyph glyph-name="Tbar" unicode="&#x166;" horiz-adv-x="534" 
d="M524 642h-199v-231h99v-79h-99v-332h-115v332h-101v79h101v231h-200v108h514v-108z" />
    <glyph glyph-name="tbar" unicode="&#x167;" horiz-adv-x="358" 
d="M336 406h-101v-136h101v-79h-101v-191h-112v191h-102v79h102v136h-101v94h101v180h112v-180h101v-94z" />
    <glyph glyph-name="Umacron" unicode="&#x16a;" horiz-adv-x="749" 
d="M219 847v69h310v-69h-310zM374 -10q-127 0 -210.5 72t-83.5 182v506h115v-486q0 -71 51 -118.5t128 -47.5t128 47.5t51 118.5v486h116v-506q0 -109 -84 -181.5t-211 -72.5z" />
    <glyph glyph-name="umacron" unicode="&#x16b;" horiz-adv-x="551" 
d="M121 597v69h310v-69h-310zM276 -10q-96 0 -151.5 52.5t-55.5 142.5v315h112v-302q0 -47 26.5 -75t68.5 -28t68 28t26 75v302h112v-315q0 -90 -55.5 -142.5t-150.5 -52.5z" />
    <glyph glyph-name="Uring" unicode="&#x16e;" horiz-adv-x="749" 
d="M374 794q-46 0 -79 33t-33 79t33 78.5t79 32.5t78.5 -32.5t32.5 -78.5t-32.5 -79t-78.5 -33zM374 846q25 0 42 17t17 43q0 24 -17.5 42t-41.5 18t-41 -18t-17 -42q0 -26 16.5 -43t41.5 -17zM374 -10q-127 0 -210.5 72t-83.5 182v506h115v-486q0 -71 51 -118.5t128 -47.5
t128 47.5t51 118.5v486h116v-506q0 -109 -84 -181.5t-211 -72.5z" />
    <glyph glyph-name="uring" unicode="&#x16f;" horiz-adv-x="551" 
d="M276 544q-46 0 -79 33t-33 79t33 78.5t79 32.5t78.5 -32.5t32.5 -78.5t-32.5 -79t-78.5 -33zM276 596q25 0 42 17t17 43q0 24 -17.5 42t-41.5 18t-41 -18t-17 -42q0 -26 16.5 -43t41.5 -17zM276 -10q-96 0 -151.5 52.5t-55.5 142.5v315h112v-302q0 -47 26.5 -75t68.5 -28
t68 28t26 75v302h112v-315q0 -90 -55.5 -142.5t-150.5 -52.5z" />
    <glyph glyph-name="Uhungarumlaut" unicode="&#x170;" horiz-adv-x="749" 
d="M274 822l-49 55l165 149l54 -59zM474 822l-50 55l166 149l53 -59zM374 -10q-127 0 -210.5 72t-83.5 182v506h115v-486q0 -71 51 -118.5t128 -47.5t128 47.5t51 118.5v486h116v-506q0 -109 -84 -181.5t-211 -72.5z" />
    <glyph glyph-name="uhungarumlaut" unicode="&#x171;" horiz-adv-x="551" 
d="M176 572l-49 55l165 149l54 -59zM376 572l-50 55l166 149l53 -59zM276 -10q-96 0 -151.5 52.5t-55.5 142.5v315h112v-302q0 -47 26.5 -75t68.5 -28t68 28t26 75v302h112v-315q0 -90 -55.5 -142.5t-150.5 -52.5z" />
    <glyph glyph-name="Uogonek" unicode="&#x172;" horiz-adv-x="749" 
d="M553 750h116v-506q0 -87 -55.5 -152.5t-146.5 -89.5q-49 -28 -75.5 -56.5t-26.5 -66.5q0 -28 16.5 -44.5t45.5 -16.5q53 0 90 45l36 -51q-58 -60 -143 -55q-54 3 -86 33.5t-32 78.5q0 67 67 121q-121 5 -200 76.5t-79 177.5v506h115v-486q0 -71 51 -118.5t128 -47.5
t128 47.5t51 118.5v486z" />
    <glyph glyph-name="uogonek" unicode="&#x173;" horiz-adv-x="551" 
d="M370 500h112v-315q0 -76 -40 -126t-111 -64q-58 -30 -89 -60.5t-31 -71.5q0 -28 16.5 -44.5t45.5 -16.5q53 0 90 45l36 -51q-58 -60 -143 -55q-54 3 -86 33.5t-32 78.5q0 79 93 140q-77 12 -119.5 62.5t-42.5 129.5v315h112v-302q0 -47 26.5 -75t68.5 -28t68 28t26 75
v302z" />
    <glyph glyph-name="Wcircumflex" unicode="&#x174;" horiz-adv-x="1015" 
d="M509 933l-102 -110l-50 31l107 146h89l108 -146l-50 -31zM907 750h121l-222 -750h-128l-171 613l-169 -613h-128l-223 750h122l168 -572l162 572h136l164 -572z" />
    <glyph glyph-name="wcircumflex" unicode="&#x175;" horiz-adv-x="824" 
d="M413 683l-102 -110l-50 31l107 146h89l108 -146l-50 -31zM696 500h124l-171 -500h-120l-116 348l-117 -348h-120l-172 500h126l111 -376l124 376h95l124 -377z" />
    <glyph glyph-name="Ycircumflex" unicode="&#x176;" horiz-adv-x="627" 
d="M315 933l-102 -110l-50 31l107 146h89l108 -146l-50 -31zM633 750l-261 -396v-354h-115v353l-263 397h136l184 -287l185 287h134z" />
    <glyph glyph-name="ycircumflex" unicode="&#x177;" horiz-adv-x="525" 
d="M263 683l-102 -110l-50 31l107 146h89l108 -146l-50 -31zM398 500h123l-211 -528l-90 -222h-116l104 256l-204 494h122l138 -363z" />
    <glyph glyph-name="Ydieresis" unicode="&#x178;" horiz-adv-x="627" 
d="M219 884q-26 0 -45 18.5t-19 44.5t19 44.5t45 18.5t44.5 -18.5t18.5 -44.5q0 -25 -19 -44t-44 -19zM412 884q-26 0 -44.5 19t-18.5 44q0 26 18.5 44.5t44.5 18.5t45 -18.5t19 -44.5t-19 -44.5t-45 -18.5zM633 750l-261 -396v-354h-115v353l-263 397h136l184 -287l185 287
h134z" />
    <glyph glyph-name="Zacute" unicode="&#x179;" horiz-adv-x="668" 
d="M492 946l-165 -142l-41 46l149 160zM213 108h404v-108h-570v61l396 581h-385v108h551v-61z" />
    <glyph glyph-name="zacute" unicode="&#x17a;" horiz-adv-x="494" 
d="M406 696l-165 -142l-41 46l149 160zM464 500l-252 -399h248v-101h-434l251 399h-235v101h422z" />
    <glyph glyph-name="Zdotaccent" unicode="&#x17b;" horiz-adv-x="668" 
d="M341 875q-28 0 -48 19.5t-20 47.5t20 48t48 20t48 -20t20 -48t-20 -47.5t-48 -19.5zM213 108h404v-108h-570v61l396 581h-385v108h551v-61z" />
    <glyph glyph-name="zdotaccent" unicode="&#x17c;" horiz-adv-x="494" 
d="M255 625q-28 0 -48 19.5t-20 47.5t20 48t48 20t48 -20t20 -48t-20 -47.5t-48 -19.5zM464 500l-252 -399h248v-101h-434l251 399h-235v101h422z" />
    <glyph glyph-name="Zcaron" unicode="&#x17d;" horiz-adv-x="668" 
d="M385 823h-89l-107 146l50 31l102 -110l102 110l50 -31zM213 108h404v-108h-570v61l396 581h-385v108h551v-61z" />
    <glyph glyph-name="zcaron" unicode="&#x17e;" horiz-adv-x="494" 
d="M299 573h-89l-107 146l50 31l102 -110l102 110l50 -31zM464 500l-252 -399h248v-101h-434l251 399h-235v101h422z" />
    <glyph glyph-name="florin" unicode="&#x192;" horiz-adv-x="471" 
d="M382 679q-38 0 -64.5 -25t-33.5 -66l-14 -88h137l-12 -85h-138l-106 -665h-100l105 665h-84l13 85h85l16 102q10 67 64 112.5t121 45.5q47 0 71 -18l-10 -80q-20 17 -50 17z" />
    <glyph glyph-name="uni01CD" unicode="&#x1cd;" horiz-adv-x="725" 
d="M407 823h-89l-107 146l50 31l102 -110l102 110l50 -31zM603 0l-62 161h-357l-62 -161h-125l301 750h129l301 -750h-125zM224 264h278l-139 362z" />
    <glyph glyph-name="uni01CE" unicode="&#x1ce;" horiz-adv-x="664" 
d="M358 573h-89l-107 146l50 31l102 -110l102 110l50 -31zM468 500h112v-500h-112v63q-65 -73 -171 -73q-102 0 -175 76t-73 184t73 184t175 76q106 0 171 -73v63zM316 95q65 0 110 45t45 110t-45 110t-110 45t-110.5 -45t-45.5 -110t45.5 -110t110.5 -45z" />
    <glyph glyph-name="uni01CF" unicode="&#x1cf;" horiz-adv-x="294" 
d="M102 823l-107 146l50 31l102 -110l102 110l50 -31l-108 -146h-89zM90 0v750h115v-750h-115z" />
    <glyph glyph-name="uni01D0" unicode="&#x1d0;" horiz-adv-x="292" 
d="M101 573l-107 146l50 31l102 -110l102 110l50 -31l-108 -146h-89zM91 0v500h111v-500h-111z" />
    <glyph glyph-name="uni01D1" unicode="&#x1d1;" horiz-adv-x="884" 
d="M397 823l-107 146l50 31l102 -110l102 110l50 -31l-108 -146h-89zM442 -10q-160 0 -272.5 112.5t-112.5 272.5t112.5 272.5t272.5 112.5t272.5 -112.5t112.5 -272.5t-112.5 -272.5t-272.5 -112.5zM442 104q114 0 192.5 78.5t78.5 192.5t-78.5 192.5t-192.5 78.5
q-113 0 -192 -78.5t-79 -192.5t79 -192.5t192 -78.5z" />
    <glyph glyph-name="uni01D2" unicode="&#x1d2;" horiz-adv-x="632" 
d="M271 573l-107 146l50 31l102 -110l102 110l50 -31l-108 -146h-89zM316 -10q-112 0 -189.5 75.5t-77.5 184.5t77.5 184.5t189.5 75.5q111 0 189 -75.5t78 -184.5t-78 -184.5t-189 -75.5zM316 95q65 0 110 45t45 110t-45 110t-110 45t-110.5 -45t-45.5 -110t45.5 -110
t110.5 -45z" />
    <glyph glyph-name="uni01D3" unicode="&#x1d3;" horiz-adv-x="749" 
d="M329 823l-107 146l50 31l102 -110l102 110l50 -31l-108 -146h-89zM374 -10q-127 0 -210.5 72t-83.5 182v506h115v-486q0 -71 51 -118.5t128 -47.5t128 47.5t51 118.5v486h116v-506q0 -109 -84 -181.5t-211 -72.5z" />
    <glyph glyph-name="uni01D4" unicode="&#x1d4;" horiz-adv-x="551" 
d="M231 573l-107 146l50 31l102 -110l102 110l50 -31l-108 -146h-89zM276 -10q-96 0 -151.5 52.5t-55.5 142.5v315h112v-302q0 -47 26.5 -75t68.5 -28t68 28t26 75v302h112v-315q0 -90 -55.5 -142.5t-150.5 -52.5z" />
    <glyph glyph-name="uni0237" unicode="&#x237;" horiz-adv-x="279" 
d="M84 -250v750h111v-750h-111z" />
    <glyph glyph-name="circumflex" unicode="&#x2c6;" horiz-adv-x="77" 
d="M103 573l-50 31l107 146h89l108 -146l-50 -31l-102 110z" />
    <glyph glyph-name="caron" unicode="&#x2c7;" horiz-adv-x="77" 
d="M162 573l-107 146l50 31l102 -110l102 110l50 -31l-108 -146h-89z" />
    <glyph glyph-name="breve" unicode="&#x2d8;" horiz-adv-x="63" 
d="M296 562q-76 0 -123.5 43t-47.5 119h66q0 -39 30 -67.5t75 -28.5q47 0 77 28.5t30 67.5h66q0 -76 -47.5 -119t-125.5 -43z" />
    <glyph glyph-name="dotaccent" unicode="&#x2d9;" horiz-adv-x="71" 
d="M159 625q-28 0 -48 19.5t-20 47.5t20 48t48 20t48 -20t20 -48t-20 -47.5t-48 -19.5z" />
    <glyph glyph-name="ring" unicode="&#x2da;" horiz-adv-x="65" 
d="M101 544q-46 0 -79 33t-33 79t33 78.5t79 32.5t78.5 -32.5t32.5 -78.5t-32.5 -79t-78.5 -33zM101 596q25 0 42 17t17 43q0 24 -17.5 42t-41.5 18t-41 -18t-17 -42q0 -26 16.5 -43t41.5 -17z" />
    <glyph glyph-name="ogonek" unicode="&#x2db;" horiz-adv-x="68" 
d="M175 -259q-54 3 -86 33.5t-32 78.5q0 99 147 171l55 -24q-63 -32 -96 -63t-33 -74q0 -28 16.5 -44.5t45.5 -16.5q53 0 90 45l36 -51q-58 -60 -143 -55z" />
    <glyph glyph-name="tilde" unicode="&#x2dc;" horiz-adv-x="58" 
d="M264 604q-56 0 -96 56q-14 23 -33 23q-40 0 -40 -74h-74q0 64 30 105t82 41q57 0 96 -56q15 -23 34 -23q41 0 41 74h72q0 -64 -29 -105t-83 -41z" />
    <glyph glyph-name="hungarumlaut" unicode="&#x2dd;" horiz-adv-x="72" 
d="M86 554l-41 46l149 160l57 -64z" />
    <glyph glyph-name="gravecomb" unicode="&#x300;" 
d="M-80 555l-166 141l58 64l148 -161z" />
    <glyph glyph-name="acutecomb" unicode="&#x301;" 
d="M-182 554l-41 46l149 160l57 -64z" />
    <glyph glyph-name="uni0302" unicode="&#x302;" 
d="M-307 573l-50 31l107 146h89l108 -146l-50 -31l-102 110z" />
    <glyph glyph-name="tildecomb" unicode="&#x303;" 
d="M-136 604q-56 0 -96 56q-14 23 -33 23q-40 0 -40 -74h-74q0 64 30 105t82 41q57 0 96 -56q15 -23 34 -23q41 0 41 74h72q0 -64 -29 -105t-83 -41z" />
    <glyph glyph-name="uni0304" unicode="&#x304;" 
d="M-341 597v69h310v-69h-310z" />
    <glyph glyph-name="uni0306" unicode="&#x306;" 
d="M-347 562q-76 0 -123.5 43t-47.5 119h66q0 -39 30 -67.5t75 -28.5q47 0 77 28.5t30 67.5h66q0 -76 -47.5 -119t-125.5 -43z" />
    <glyph glyph-name="uni0307" unicode="&#x307;" 
d="M-159 625q-28 0 -48 19.5t-20 47.5t20 48t48 20t48 -20t20 -48t-20 -47.5t-48 -19.5z" />
    <glyph glyph-name="uni0308" unicode="&#x308;" 
d="M-320 634q-26 0 -45 18.5t-19 44.5t19 44.5t45 18.5t44.5 -18.5t18.5 -44.5q0 -25 -18.5 -44t-44.5 -19zM-127 634q-25 0 -44 19t-19 44q0 26 18.5 44.5t44.5 18.5t45 -18.5t19 -44.5t-19 -44.5t-45 -18.5z" />
    <glyph glyph-name="uni030A" unicode="&#x30a;" 
d="M-100 544q-46 0 -79 33t-33 79t33 78.5t79 32.5t78.5 -32.5t32.5 -78.5t-32.5 -79t-78.5 -33zM-100 596q25 0 42 17t17 43q0 24 -17.5 42t-41.5 18t-41 -18t-17 -42q0 -26 16.5 -43t41.5 -17z" />
    <glyph glyph-name="uni030B" unicode="&#x30b;" 
d="M-140 572l-49 55l165 149l54 -59zM60 572l-50 55l166 149l53 -59z" />
    <glyph glyph-name="uni030C" unicode="&#x30c;" 
d="M-252 573l-107 146l50 31l102 -110l102 110l50 -31l-108 -146h-89z" />
    <glyph glyph-name="dotbelowcomb" unicode="&#x323;" 
d="M-99 -250q-28 0 -48 20t-20 48t20 48t48 20t48 -20t20 -48t-20 -48t-48 -20z" />
    <glyph glyph-name="uni0326" unicode="&#x326;" 
d="M-181 -137l-39 17l98 225l73 -32z" />
    <glyph glyph-name="uni0327" unicode="&#x327;" 
d="M-137 -260q-37 0 -70.5 20.5t-46.5 50.5l54 19q9 -13 27.5 -22.5t35.5 -9.5q20 0 34 14t14 35q0 31 -26.5 41t-63.5 -6l-46 28l48 90h59l-33 -63q49 10 84.5 -16.5t35.5 -73.5q0 -45 -31 -76t-75 -31z" />
    <glyph glyph-name="uni0328" unicode="&#x328;" 
d="M-138 -259q-54 3 -86 33.5t-32 78.5q0 99 147 171l55 -24q-63 -32 -96 -63t-33 -74q0 -28 16.5 -44.5t45.5 -16.5q53 0 90 45l36 -51q-58 -60 -143 -55z" />
    <glyph glyph-name="uni0335" unicode="&#x335;" 
d="M-486 214v79h315v-79h-315z" />
    <glyph glyph-name="uni0336" unicode="&#x336;" 
d="M-760 230v60h728v-60h-728z" />
    <glyph glyph-name="uni0337" unicode="&#x337;" 
d="M-464 111l-42 53l321 239l43 -53z" />
    <glyph glyph-name="uni0338" unicode="&#x338;" 
d="M-635 -6l564 809l76 -47l-564 -808z" />
    <glyph glyph-name="uni0394" unicode="&#x394;" horiz-adv-x="770" 
d="M449 750l301 -750h-731l301 750h129zM186 108h397l-198 513z" />
    <glyph glyph-name="uni03A9" unicode="&#x3a9;" horiz-adv-x="889" 
d="M61 0v81h154v6q-58 49 -97.5 131t-39.5 179q0 152 104 253.5t265 101.5q163 0 263 -105t100 -249q0 -95 -41 -179.5t-99 -131.5v-6h157v-81h-302v60q75 40 126.5 124.5t51.5 195.5q0 118 -69 204t-186 86t-190 -83t-73 -208q0 -110 52.5 -196t125.5 -123v-60h-302z" />
    <glyph glyph-name="uni03BC" unicode="&#x3bc;" horiz-adv-x="641" 
d="M430 500h111v-500h-111v66q-60 -76 -153 -76q-63 0 -113 36v-276h-83v750h111v-297q0 -47 34 -81t82 -34q51 0 86.5 34t35.5 81v297z" />
    <glyph glyph-name="pi" unicode="&#x3c0;" horiz-adv-x="710" 
d="M79 0q31 85 54.5 216.5t27.5 238.5q-84 0 -132 -22l-14 84q50 31 177 31h491l-9 -93h-95v-291q0 -110 16 -164h-102q-19 30 -19 154v301h-209q-5 -107 -29.5 -246.5t-54.5 -208.5h-102z" />
    <glyph glyph-name="Wgrave" unicode="&#x1e80;" horiz-adv-x="1015" 
d="M553 849l-40 -44l-166 141l58 64zM907 750h121l-222 -750h-128l-171 613l-169 -613h-128l-223 750h122l168 -572l162 572h136l164 -572z" />
    <glyph glyph-name="wgrave" unicode="&#x1e81;" horiz-adv-x="824" 
d="M457 599l-40 -44l-166 141l58 64zM696 500h124l-171 -500h-120l-116 348l-117 -348h-120l-172 500h126l111 -376l124 376h95l124 -377z" />
    <glyph glyph-name="Wacute" unicode="&#x1e82;" horiz-adv-x="1015" 
d="M660 946l-165 -142l-41 46l149 160zM907 750h121l-222 -750h-128l-171 613l-169 -613h-128l-223 750h122l168 -572l162 572h136l164 -572z" />
    <glyph glyph-name="wacute" unicode="&#x1e83;" horiz-adv-x="824" 
d="M564 696l-165 -142l-41 46l149 160zM696 500h124l-171 -500h-120l-116 348l-117 -348h-120l-172 500h126l111 -376l124 376h95l124 -377z" />
    <glyph glyph-name="Wdieresis" unicode="&#x1e84;" horiz-adv-x="1015" 
d="M413 884q-26 0 -45 18.5t-19 44.5t19 44.5t45 18.5t44.5 -18.5t18.5 -44.5q0 -25 -19 -44t-44 -19zM606 884q-26 0 -44.5 19t-18.5 44q0 26 18.5 44.5t44.5 18.5t45 -18.5t19 -44.5t-19 -44.5t-45 -18.5zM907 750h121l-222 -750h-128l-171 613l-169 -613h-128l-223 750
h122l168 -572l162 572h136l164 -572z" />
    <glyph glyph-name="wdieresis" unicode="&#x1e85;" horiz-adv-x="824" 
d="M317 634q-26 0 -45 18.5t-19 44.5t19 44.5t45 18.5t44.5 -18.5t18.5 -44.5q0 -25 -19 -44t-44 -19zM510 634q-26 0 -44.5 19t-18.5 44q0 26 18.5 44.5t44.5 18.5t45 -18.5t19 -44.5t-19 -44.5t-45 -18.5zM696 500h124l-171 -500h-120l-116 348l-117 -348h-120l-172 500
h126l111 -376l124 376h95l124 -377z" />
    <glyph glyph-name="Ygrave" unicode="&#x1ef2;" horiz-adv-x="627" 
d="M359 849l-40 -44l-166 141l58 64zM633 750l-261 -396v-354h-115v353l-263 397h136l184 -287l185 287h134z" />
    <glyph glyph-name="ygrave" unicode="&#x1ef3;" horiz-adv-x="525" 
d="M307 599l-40 -44l-166 141l58 64zM398 500h123l-211 -528l-90 -222h-116l104 256l-204 494h122l138 -363z" />
    <glyph glyph-name="endash" unicode="&#x2013;" horiz-adv-x="609" 
d="M55 218v84h500v-84h-500z" />
    <glyph glyph-name="emdash" unicode="&#x2014;" horiz-adv-x="994" 
d="M-3 218v84h1000v-84h-1000z" />
    <glyph glyph-name="quoteleft" unicode="&#x2018;" horiz-adv-x="215" 
d="M122 802h77l-79 -259h-113z" />
    <glyph glyph-name="quoteright" unicode="&#x2019;" horiz-adv-x="253" 
d="M117 541h-77l79 259h113z" />
    <glyph glyph-name="quotesinglbase" unicode="&#x201a;" horiz-adv-x="232" 
d="M85 -199l-73 31l117 276l100 -42z" />
    <glyph glyph-name="quotedblleft" unicode="&#x201c;" horiz-adv-x="437" 
d="M123 847h77l-79 -259h-113zM323 847h77l-79 -259h-113z" />
    <glyph glyph-name="quotedblright" unicode="&#x201d;" horiz-adv-x="432" 
d="M322 557h-77l79 259h113zM118 556h-77l79 259h113z" />
    <glyph glyph-name="quotedblbase" unicode="&#x201e;" horiz-adv-x="422" 
d="M85 -199l-73 31l117 276l100 -42zM278 -199l-73 31l117 276l100 -42z" />
    <glyph glyph-name="dagger" unicode="&#x2020;" horiz-adv-x="673" 
d="M541 483v-72h-170v-581h-73v581h-167v72h167v187h73v-187h170z" />
    <glyph glyph-name="daggerdbl" unicode="&#x2021;" horiz-adv-x="673" 
d="M541 411h-170v-316h170v-72h-170v-193h-73v193h-167v72h167v316h-167v72h167v187h73v-187h170v-72z" />
    <glyph glyph-name="bullet" unicode="&#x2022;" horiz-adv-x="501" 
d="M251 187q-57 0 -98.5 40.5t-41.5 98.5q0 56 42 98t98 42t97.5 -42t41.5 -98q0 -58 -41.5 -98.5t-97.5 -40.5z" />
    <glyph glyph-name="ellipsis" unicode="&#x2026;" horiz-adv-x="844" 
d="M113 -10q-28 0 -48 20t-20 48t20 48t48 20t48 -20t20 -48t-20 -48t-48 -20zM410 -10q-28 0 -48 20t-20 48t20 48t48 20t48 -20t20 -48t-20 -48t-48 -20zM712 -10q-28 0 -48 20t-20 48t20 48t48 20t48 -20t20 -48t-20 -48t-48 -20z" />
    <glyph glyph-name="perthousand" unicode="&#x2030;" horiz-adv-x="1128" 
d="M202 425q-61 0 -104 49t-43 118q0 70 43 119t104 49t103.5 -49t42.5 -119q0 -69 -42.5 -118t-103.5 -49zM81 0l510 750h116l-510 -750h-116zM202 510q24 0 43 24t19 58q0 35 -18.5 59t-43.5 24t-43 -24t-18 -59q0 -34 18 -58t43 -24zM587 -10q-61 0 -104 49.5t-43 118.5
t43 118t104 49t103.5 -49t42.5 -118t-42.5 -118.5t-103.5 -49.5zM930 -10q-61 0 -104 49.5t-43 118.5t43 118t104 49t104 -49t43 -118t-43 -118.5t-104 -49.5zM587 75q24 0 42.5 24t18.5 59q0 34 -18.5 58t-42.5 24q-25 0 -43.5 -24t-18.5 -58q0 -35 18.5 -59t43.5 -24z
M930 75q25 0 43 24t18 59q0 34 -18 58t-43 24t-43.5 -24t-18.5 -58q0 -35 18.5 -59t43.5 -24z" />
    <glyph glyph-name="guilsinglleft" unicode="&#x2039;" horiz-adv-x="366" 
d="M204 95l-152 184l152 184h91l-152 -184l152 -184h-91z" />
    <glyph glyph-name="guilsinglright" unicode="&#x203a;" horiz-adv-x="366" 
d="M71 95l152 184l-152 184h91l152 -184l-152 -184h-91z" />
    <glyph glyph-name="fraction" unicode="&#x2044;" horiz-adv-x="617" 
d="M-17 0l523 750h114l-523 -750h-114z" />
    <glyph glyph-name="Euro" unicode="&#x20ac;" horiz-adv-x="764" 
d="M460 85q54 0 108 22t93 59v-114q-100 -62 -201 -62q-129 0 -230 75t-137 194h-84v66h69q-3 24 -3 50q0 25 3 47h-69v66h83q36 120 137 196t231 76q101 0 200 -60l-29 -92q-78 57 -171 57q-90 0 -162.5 -49t-106.5 -128h403l-21 -66h-400q-4 -20 -4 -47q0 -29 4 -50h369
l-20 -66h-329q33 -78 105 -126t162 -48z" />
    <glyph glyph-name="uni2113" unicode="&#x2113;" horiz-adv-x="605" 
d="M336 -6q-93 0 -143.5 52t-60.5 132v11q-11 -8 -33.5 -24.5t-32.5 -23.5l-31 59q16 12 48 36.5t48 36.5v279q0 138 55 203t139 65q79 0 119 -52t40 -130q0 -95 -63 -188.5t-185 -199.5l1 -31q0 -67 36 -102.5t88 -35.5q50 0 93.5 32t70.5 77l49 -46q-84 -150 -238 -150z
M236 348q171 171 171 288q0 108 -80 108q-37 0 -64 -42t-27 -136v-218z" />
    <glyph glyph-name="trademark" unicode="&#x2122;" horiz-adv-x="797" 
d="M41 696v54h246v-54h-93v-296h-61v296h-92zM641 750h65v-350h-61v254l-125 -185l-124 184v-253h-62v350h66l120 -179z" />
    <glyph glyph-name="estimated" unicode="&#x212e;" horiz-adv-x="936" 
d="M467 -9q-177 0 -302 112.5t-125 270.5q0 160 125 273t302 113q178 0 303 -113t125 -273v-10h-692q-6 0 -6 -4v-210q0 -11 9 -24q111 -114 262 -114q81 0 153 34t123 94h61q-58 -69 -147 -109t-191 -40zM203 385h531q4 0 4 7v210q0 16 -10 25q-112 110 -260 110t-261 -113
q-10 -12 -10 -26v-206q0 -7 6 -7z" />
    <glyph glyph-name="arrowleft" unicode="&#x2190;" horiz-adv-x="858" 
d="M766 415v-121h-507v-127l-243 188l243 188v-128h507z" />
    <glyph glyph-name="arrowup" unicode="&#x2191;" horiz-adv-x="521" 
d="M192 0v507h-128l188 243l188 -243h-127v-507h-121z" />
    <glyph glyph-name="arrowright" unicode="&#x2192;" horiz-adv-x="858" 
d="M96 415h507v128l243 -188l-243 -188v127h-507v121z" />
    <glyph glyph-name="arrowdown" unicode="&#x2193;" horiz-adv-x="504" 
d="M192 750h121v-507h127l-188 -243l-188 243h128v507z" />
    <glyph glyph-name="arrowboth" unicode="&#x2194;" horiz-adv-x="874" 
d="M187 144l-243 189l243 188v-127l500 -1v127l243 -188l-243 -188v128l-500 1v-129z" />
    <glyph glyph-name="arrowupdn" unicode="&#x2195;" horiz-adv-x="504" 
d="M252 -71l-188 243h128v328h-128l188 243l188 -243h-127v-328h127z" />
    <glyph glyph-name="uni2196" unicode="&#x2196;" horiz-adv-x="553" 
d="M612 153l-85 -85l-359 358l-90 -90l-38 305l304 -39l-90 -90z" />
    <glyph glyph-name="uni2197" unicode="&#x2197;" horiz-adv-x="553" 
d="M-55 153l358 359l-90 90l304 39l-38 -305l-90 90l-359 -358z" />
    <glyph glyph-name="uni2198" unicode="&#x2198;" horiz-adv-x="554" 
d="M-54 597l85 85l359 -358l90 90l38 -305l-304 39l90 90z" />
    <glyph glyph-name="uni2199" unicode="&#x2199;" horiz-adv-x="554" 
d="M612 597l-358 -359l90 -90l-304 -39l38 305l90 -90l359 358z" />
    <glyph glyph-name="partialdiff" unicode="&#x2202;" horiz-adv-x="558" 
d="M172 708q140 26 238.5 -86.5t96.5 -293.5q-2 -140 -74 -232t-180 -92q-121 0 -172 86.5t-4 213.5q42 112 130.5 158.5t182.5 10.5q-25 85 -82 127t-136 27v81zM408 328q0 40 -2 58q-73 46 -138 16.5t-99 -123.5q-30 -89 -3.5 -145.5t90.5 -56.5q59 0 104 70.5t48 180.5z
" />
    <glyph glyph-name="emptyset" unicode="&#x2205;" horiz-adv-x="820" 
d="M637 486q72 -85 72 -195q0 -124 -87.5 -211.5t-211.5 -87.5q-110 0 -195 72l-43 -43l-32 32l43 43q-72 85 -72 195q0 124 87.5 211.5t211.5 87.5q110 0 195 -72l43 43l32 -32zM200 291q0 -75 46 -132l296 296q-57 46 -132 46q-88 0 -149 -61t-61 -149zM410 81
q88 0 149 61t61 149q0 75 -46 132l-296 -296q57 -46 132 -46z" />
    <glyph glyph-name="product" unicode="&#x220f;" horiz-adv-x="759" 
d="M708 703v-79h-72v-744h-79v744h-355v-744h-79v744h-72v79h657z" />
    <glyph glyph-name="summation" unicode="&#x2211;" horiz-adv-x="761" 
d="M91 -118v65l356 345l-356 345v66h579v-85h-436l330 -326l-330 -326h436v-85z" />
    <glyph glyph-name="minus" unicode="&#x2212;" horiz-adv-x="722" 
d="M61 262v74h600v-74h-600z" />
    <glyph glyph-name="radical" unicode="&#x221a;" horiz-adv-x="745" 
d="M252 -78l-113 346h-68v72h120l99 -300l347 725l66 -28l-390 -815h-61z" />
    <glyph glyph-name="infinity" unicode="&#x221e;" horiz-adv-x="781" 
d="M207 138q-61 0 -102.5 43t-43.5 110q2 67 43.5 110t102.5 43q90 0 183 -99q94 99 183 99q65 0 105 -41.5t42 -111.5q-2 -70 -42 -111.5t-105 -41.5q-89 0 -183 99q-93 -99 -183 -99zM207 210q60 0 135 81q-75 81 -135 81q-30 0 -51.5 -23.5t-21.5 -57.5t21.5 -57.5
t51.5 -23.5zM573 210q31 0 52 22.5t22 58.5q-1 36 -22 58.5t-52 22.5q-59 0 -134 -81q75 -81 134 -81z" />
    <glyph glyph-name="integral" unicode="&#x222b;" horiz-adv-x="475" 
d="M182 -189q-45 0 -71 34t-16 83h64q0 -28 4.5 -38.5t18.5 -10.5q22 0 22 25v745q0 40 26.5 66t65.5 26q44 0 70 -34t15 -83h-64q0 29 -4 39t-18 10q-23 0 -23 -24v-745q0 -40 -26 -66.5t-64 -26.5z" />
    <glyph glyph-name="approxequal" unicode="&#x2248;" horiz-adv-x="605" 
d="M408 317q-21 0 -41 6t-31.5 11.5t-28 20t-20 18t-17.5 19.5q-32 36 -64 36q-35 0 -55 -29t-19 -73h-78q-2 81 40 131t113 50q39 0 68 -17.5t59 -55.5q11 -13 18 -20t20.5 -14t28.5 -7q33 0 53.5 27.5t19.5 73.5h77q2 -77 -37.5 -127t-105.5 -50zM408 108q-12 0 -23 1.5
t-21 5t-18 6.5t-17 9.5t-14.5 10t-13.5 11.5t-11 10.5t-11 11t-9 9.5q-34 37 -64 37q-35 -1 -55 -29.5t-19 -73.5h-78q-2 82 40.5 132t112.5 50q39 0 68 -17.5t59 -55.5q12 -14 18.5 -20.5t20 -14t28.5 -7.5q33 0 53.5 27.5t19.5 74.5h77q2 -78 -37.5 -128t-105.5 -50z" />
    <glyph glyph-name="notequal" unicode="&#x2260;" horiz-adv-x="722" 
d="M661 326h-207l-105 -122h312v-72h-373l-108 -126h-66l108 126h-161v72h222l105 122h-327v72h389l92 108h66l-92 -108h145v-72z" />
    <glyph glyph-name="lessequal" unicode="&#x2264;" horiz-adv-x="794" 
d="M673 709v-93l-460 -207l460 -210v-93l-552 252v100zM121 0v66h552v-66h-552z" />
    <glyph glyph-name="greaterequal" unicode="&#x2265;" horiz-adv-x="794" 
d="M121 709l552 -251v-100l-552 -252v93l460 210l-460 207v93zM121 0v66h552v-66h-552z" />
    <glyph glyph-name="lozenge" unicode="&#x25ca;" horiz-adv-x="786" 
d="M393 52l-302 301l302 302l301 -301zM394 176l176 178l-176 177l-179 -178z" />
    <glyph glyph-name="uniF8FF" unicode="&#xf8ff;" horiz-adv-x="942" 
d="M471 0q-157 0 -268.5 111.5t-111.5 268.5t111.5 268.5t268.5 111.5t268.5 -111t111.5 -269q0 -157 -111.5 -268.5t-268.5 -111.5zM471 36q142 0 243 101t101 243t-100.5 243t-243.5 101q-142 0 -243 -101t-101 -243t101 -243t243 -101zM670 217q-8 0 -12 6l-145 144
q-12 14 0 26l145 145q12 12 25 0q13 -13 0 -26l-132 -132l132 -132q11 -11 0 -25q-5 -6 -13 -6zM272 217q-8 0 -13 5.5t-5 12.5v290q0 7 5 12.5t13 5.5t13 -5.5t5 -12.5v-290q0 -7 -5 -12.5t-13 -5.5zM471 217q-7 0 -12.5 5.5t-5.5 12.5v290q0 7 5.5 12.5t12.5 5.5
t12.5 -5.5t5.5 -12.5v-290q0 -7 -5.5 -12.5t-12.5 -5.5zM326 362q-8 0 -13 5t-5 13t5 13t13 5h91q7 0 12.5 -5t5.5 -13t-5.5 -13t-12.5 -5h-91z" />
    <glyph glyph-name="i.loclTRK" horiz-adv-x="292" 
d="M146 625q-28 0 -48 19.5t-20 47.5t20 48t48 20t48 -20t20 -48t-20 -47.5t-48 -19.5zM91 0v500h111v-500h-111z" />
    </font>
</defs>
</svg>
